<svg width="45" height="40" viewBox="0 0 45 40" fill="none" xmlns="http://www.w3.org/2000/svg">
<path d="M40.2835 4.8H36.3342V3.2C36.3342 2.35131 36.0013 1.53737 35.4088 0.937258C34.8163 0.337142 34.0126 0 33.1747 0C32.3367 0 31.5331 0.337142 30.9406 0.937258C30.3481 1.53737 30.0152 2.35131 30.0152 3.2V4.8H25.2759V3.2C25.2759 2.35131 24.9431 1.53737 24.3506 0.937258C23.758 0.337142 22.9544 0 22.1165 0C21.2785 0 20.4749 0.337142 19.8824 0.937258C19.2898 1.53737 18.957 2.35131 18.957 3.2V4.8H14.2177V3.2C14.2177 2.35131 13.8848 1.53737 13.2923 0.937258C12.6998 0.337142 11.8962 0 11.0582 0C10.2203 0 9.41665 0.337142 8.82413 0.937258C8.23161 1.53737 7.89873 2.35131 7.89873 3.2V4.8H3.94937C2.90193 4.8 1.89739 5.22143 1.15674 5.97157C0.416093 6.72172 0 7.73913 0 8.8V36C0 37.0609 0.416093 38.0783 1.15674 38.8284C1.89739 39.5786 2.90193 40 3.94937 40H40.2835C41.331 40 42.3355 39.5786 43.0762 38.8284C43.8168 38.0783 44.2329 37.0609 44.2329 36V8.8C44.2329 7.73913 43.8168 6.72172 43.0762 5.97157C42.3355 5.22143 41.331 4.8 40.2835 4.8ZM1.57975 14.4H42.6532V32H1.57975V14.4ZM31.5949 3.2C31.5949 2.77565 31.7614 2.36869 32.0576 2.06863C32.3539 1.76857 32.7557 1.6 33.1747 1.6C33.5937 1.6 33.9955 1.76857 34.2917 2.06863C34.588 2.36869 34.7544 2.77565 34.7544 3.2V4.8H31.5949V3.2ZM20.5367 3.2C20.5367 2.77565 20.7031 2.36869 20.9994 2.06863C21.2957 1.76857 21.6975 1.6 22.1165 1.6C22.5354 1.6 22.9372 1.76857 23.2335 2.06863C23.5298 2.36869 23.6962 2.77565 23.6962 3.2V4.8H20.5367V3.2ZM9.47848 3.2C9.47848 2.77565 9.64492 2.36869 9.94118 2.06863C10.2374 1.76857 10.6393 1.6 11.0582 1.6C11.4772 1.6 11.879 1.76857 12.1753 2.06863C12.4715 2.36869 12.638 2.77565 12.638 3.2V4.8H9.47848V3.2ZM3.94937 6.4H7.89873V8C7.89873 8.84869 8.23161 9.66263 8.82413 10.2627C9.41665 10.8629 10.2203 11.2 11.0582 11.2C11.2677 11.2 11.4686 11.1157 11.6168 10.9657C11.7649 10.8157 11.8481 10.6122 11.8481 10.4C11.8481 10.1878 11.7649 9.98434 11.6168 9.83431C11.4686 9.68429 11.2677 9.6 11.0582 9.6C10.6393 9.6 10.2374 9.43143 9.94118 9.13137C9.64492 8.83131 9.47848 8.42435 9.47848 8V6.4H18.957V8C18.957 8.84869 19.2898 9.66263 19.8824 10.2627C20.4749 10.8629 21.2785 11.2 22.1165 11.2C22.3259 11.2 22.5269 11.1157 22.675 10.9657C22.8231 10.8157 22.9063 10.6122 22.9063 10.4C22.9063 10.1878 22.8231 9.98434 22.675 9.83431C22.5269 9.68429 22.3259 9.6 22.1165 9.6C21.6975 9.6 21.2957 9.43143 20.9994 9.13137C20.7031 8.83131 20.5367 8.42435 20.5367 8V6.4H30.0152V8C30.0152 8.84869 30.3481 9.66263 30.9406 10.2627C31.5331 10.8629 32.3367 11.2 33.1747 11.2C33.3842 11.2 33.5851 11.1157 33.7332 10.9657C33.8813 10.8157 33.9646 10.6122 33.9646 10.4C33.9646 10.1878 33.8813 9.98434 33.7332 9.83431C33.5851 9.68429 33.3842 9.6 33.1747 9.6C32.7557 9.6 32.3539 9.43143 32.0576 9.13137C31.7614 8.83131 31.5949 8.42435 31.5949 8V6.4H40.2835C40.912 6.4 41.5147 6.65286 41.9591 7.10294C42.4035 7.55303 42.6532 8.16348 42.6532 8.8V12.8H1.57975V8.8C1.57975 8.16348 1.8294 7.55303 2.27379 7.10294C2.71818 6.65286 3.3209 6.4 3.94937 6.4ZM40.2835 38.4H3.94937C3.3209 38.4 2.71818 38.1471 2.27379 37.6971C1.8294 37.247 1.57975 36.6365 1.57975 36V33.6H42.6532V36C42.6532 36.6365 42.4035 37.247 41.9591 37.6971C41.5147 38.1471 40.912 38.4 40.2835 38.4ZM25.2759 17.6H18.957C18.3285 17.6 17.7258 17.8529 17.2814 18.3029C16.837 18.753 16.5873 19.3635 16.5873 20V26.4C16.5873 27.0365 16.837 27.647 17.2814 28.0971C17.7258 28.5471 18.3285 28.8 18.957 28.8H25.2759C25.9044 28.8 26.5071 28.5471 26.9515 28.0971C27.3959 27.647 27.6456 27.0365 27.6456 26.4V20C27.6456 19.3635 27.3959 18.753 26.9515 18.3029C26.5071 17.8529 25.9044 17.6 25.2759 17.6ZM26.0658 26.4C26.0658 26.6122 25.9826 26.8157 25.8345 26.9657C25.6863 27.1157 25.4854 27.2 25.2759 27.2H18.957C18.7475 27.2 18.5466 27.1157 18.3984 26.9657C18.2503 26.8157 18.1671 26.6122 18.1671 26.4V20C18.1671 19.7878 18.2503 19.5843 18.3984 19.4343C18.5466 19.2843 18.7475 19.2 18.957 19.2H25.2759C25.4854 19.2 25.6863 19.2843 25.8345 19.4343C25.9826 19.5843 26.0658 19.7878 26.0658 20V26.4ZM38.7038 17.6H32.3848C31.7563 17.6 31.1536 17.8529 30.7092 18.3029C30.2648 18.753 30.0152 19.3635 30.0152 20V26.4C30.0152 27.0365 30.2648 27.647 30.7092 28.0971C31.1536 28.5471 31.7563 28.8 32.3848 28.8H38.7038C39.3323 28.8 39.935 28.5471 40.3794 28.0971C40.8238 27.647 41.0734 27.0365 41.0734 26.4V20C41.0734 19.3635 40.8238 18.753 40.3794 18.3029C39.935 17.8529 39.3323 17.6 38.7038 17.6ZM39.4937 26.4C39.4937 26.6122 39.4105 26.8157 39.2623 26.9657C39.1142 27.1157 38.9133 27.2 38.7038 27.2H32.3848C32.1753 27.2 31.9744 27.1157 31.8263 26.9657C31.6782 26.8157 31.5949 26.6122 31.5949 26.4V20C31.5949 19.7878 31.6782 19.5843 31.8263 19.4343C31.9744 19.2843 32.1753 19.2 32.3848 19.2H38.7038C38.9133 19.2 39.1142 19.2843 39.2623 19.4343C39.4105 19.5843 39.4937 19.7878 39.4937 20V26.4ZM14.4468 16.232L12.867 17.832C12.5487 17.6789 12.2006 17.5996 11.8481 17.6H5.52911C4.90065 17.6 4.29793 17.8529 3.85354 18.3029C3.40915 18.753 3.15949 19.3635 3.15949 20V26.4C3.15949 27.0365 3.40915 27.647 3.85354 28.0971C4.29793 28.5471 4.90065 28.8 5.52911 28.8H11.8481C12.4766 28.8 13.0793 28.5471 13.5237 28.0971C13.9681 27.647 14.2177 27.0365 14.2177 26.4V20C14.2156 19.6424 14.1347 19.2898 13.9808 18.968L15.5605 17.368C15.7092 17.2174 15.7928 17.013 15.7928 16.8C15.7928 16.587 15.7092 16.3826 15.5605 16.232C15.4118 16.0814 15.21 15.9967 14.9997 15.9967C14.7894 15.9967 14.5876 16.0814 14.4389 16.232H14.4468ZM12.638 26.4C12.638 26.6122 12.5548 26.8157 12.4066 26.9657C12.2585 27.1157 12.0576 27.2 11.8481 27.2H5.52911C5.31963 27.2 5.11872 27.1157 4.97059 26.9657C4.82246 26.8157 4.73924 26.6122 4.73924 26.4V20C4.73924 19.7878 4.82246 19.5843 4.97059 19.4343C5.11872 19.2843 5.31963 19.2 5.52911 19.2H11.5243L8.68861 22.072L7.66967 21.032C7.52094 20.8814 7.31921 20.7967 7.10886 20.7967C6.89852 20.7967 6.69679 20.8814 6.54805 21.032C6.39931 21.1826 6.31576 21.387 6.31576 21.6C6.31576 21.813 6.39931 22.0174 6.54805 22.168L8.1278 23.768C8.20123 23.843 8.28859 23.9025 8.38484 23.9431C8.48109 23.9837 8.58434 24.0046 8.68861 24.0046C8.79288 24.0046 8.89612 23.9837 8.99237 23.9431C9.08863 23.9025 9.17599 23.843 9.24942 23.768L12.638 20.328V26.4Z" fill="#3A0469"/>
</svg>
