<svg width="43" height="42" viewBox="0 0 43 42" fill="none" xmlns="http://www.w3.org/2000/svg">
<path d="M20.7607 26.3863C26.1434 23.3607 24.955 19.302 22.9976 18.7116C21.3199 18.1951 20.7607 19.9661 20.7607 19.9661C20.7607 19.9661 20.2014 18.1951 18.5237 18.7116C16.5664 19.302 15.378 23.3607 20.7607 26.3863Z" stroke="#3A0469" stroke-width="2" stroke-miterlimit="10" stroke-linecap="round" stroke-linejoin="round"/>
<path d="M24.8155 32.8075C24.8155 32.8075 18.7337 33.8406 14.5394 33.1027C13.7006 32.9551 12.9316 32.5861 12.7918 31.7006C12.652 30.8889 13.2112 29.9295 14.0501 30.0033C17.9648 30.2985 22.9979 29.413 25.2349 28.5274C26.2835 28.0847 27.6117 27.7157 29.9185 28.2322C29.9185 28.2322 32.6448 28.675 35.0915 30.5199L41.1732 35.7593" stroke="#3A0469" stroke-width="2" stroke-miterlimit="10" stroke-linecap="round" stroke-linejoin="round"/>
<path d="M2.86536 29.0469C6.43051 32.4414 13.6307 39.3043 13.6307 39.3043C13.9802 39.5995 14.3997 39.8209 14.8191 39.8947C14.9589 39.8947 15.1686 39.8947 15.3084 39.8947L26.9127 38.6402C28.87 38.4188 30.8973 38.8616 32.6449 39.8209C33.4138 40.2636 34.1129 40.7064 34.6721 41.0016" stroke="#3A0469" stroke-width="2" stroke-miterlimit="10" stroke-linecap="round" stroke-linejoin="round"/>
<path d="M12.8614 31.7725L3.63392 25.5737C3.07468 25.131 2.37563 24.9834 1.74649 25.2786C1.46687 25.4262 1.25715 25.5737 1.18725 25.7951C0.837721 26.4593 0.977531 27.3448 1.60668 27.7876C1.60668 27.7876 2.09601 28.3041 2.86497 28.9683" stroke="#3A0469" stroke-width="2" stroke-miterlimit="10" stroke-linecap="round" stroke-linejoin="round"/>
<path d="M14.0495 22.1797V18.1948C14.0495 17.6783 13.9097 17.0879 13.5601 16.6451L13.4902 16.5713C13.0009 15.8334 12.2319 15.3906 11.3931 15.3906H6.56964C5.73078 15.3906 4.96182 15.8334 4.47249 16.5713V16.6451C4.19287 17.0879 3.98315 17.6045 3.98315 18.1948V22.1797" stroke="#3A0469" stroke-width="2" stroke-miterlimit="10" stroke-linecap="round" stroke-linejoin="round"/>
<path d="M12.2322 12.0703C12.2322 13.9152 10.8341 15.4649 9.01653 15.4649C7.26891 15.4649 5.8009 13.989 5.8009 12.0703C5.8009 10.1517 7.199 8.67578 9.01653 8.67578C10.7642 8.67578 12.2322 10.1517 12.2322 12.0703Z" stroke="#3A0469" stroke-width="2" stroke-miterlimit="10" stroke-linecap="round" stroke-linejoin="round"/>
<path d="M27.4714 19.0767V13.7635C27.4714 13.0256 27.2617 12.2876 26.8423 11.6973L26.7724 11.5497C26.1432 10.5904 25.0947 10 23.9762 10H17.5449C16.4265 10 15.3779 10.5904 14.7487 11.5497L14.6788 11.6973C14.2594 12.2876 14.0497 13.0256 14.0497 13.7635V19.0767" stroke="#3A0469" stroke-width="2" stroke-miterlimit="10" stroke-linecap="round" stroke-linejoin="round"/>
<path d="M25.0249 5.50147C25.0249 8.01048 23.1374 10.0029 20.7607 10.0029C18.3839 10.0029 16.4965 8.01048 16.4965 5.50147C16.4965 2.99245 18.3839 1 20.7607 1C23.1374 1 25.0249 3.06625 25.0249 5.50147Z" stroke="#3A0469" stroke-width="2" stroke-miterlimit="10" stroke-linecap="round" stroke-linejoin="round"/>
<path d="M37.5379 22.1797V18.1948C37.5379 17.6783 37.3981 17.0879 37.0485 16.6451L36.9786 16.5713C36.4893 15.8334 35.7203 15.3906 34.8815 15.3906H30.058C29.2192 15.3906 28.4502 15.8334 27.9609 16.5713V16.6451C27.6813 17.0879 27.4716 17.6045 27.4716 18.1948V22.1797" stroke="#3A0469" stroke-width="2" stroke-miterlimit="10" stroke-linecap="round" stroke-linejoin="round"/>
<path d="M35.7206 12.0703C35.7206 13.9152 34.3225 15.4649 32.5049 15.4649C30.7573 15.4649 29.2893 13.989 29.2893 12.0703C29.2893 10.1517 30.6874 8.67578 32.5049 8.67578C34.2526 8.67578 35.7206 10.1517 35.7206 12.0703Z" stroke="#3A0469" stroke-width="2" stroke-miterlimit="10" stroke-linecap="round" stroke-linejoin="round"/>
</svg>
