<svg width="32" height="40" viewBox="0 0 32 40" fill="none" xmlns="http://www.w3.org/2000/svg">
<path d="M27.552 23.5088H27.4734C27.9382 21.7775 28.0563 19.9712 27.8211 18.1939C27.5859 16.4167 27.002 14.7036 26.103 13.1535L25.1965 11.573C25.4537 11.1941 25.6162 10.7587 25.6704 10.3037C25.7246 9.84867 25.6689 9.38725 25.508 8.95829C25.3471 8.52932 25.0857 8.14536 24.7458 7.83874C24.4059 7.53211 23.9974 7.3118 23.5548 7.19633C23.3872 5.23318 22.4905 3.4045 21.0419 2.07194C19.5933 0.73939 17.6983 0 15.7317 0C13.7652 0 11.8702 0.73939 10.4216 2.07194C8.97302 3.4045 8.07626 5.23318 7.90871 7.19633C7.46364 7.30825 7.05205 7.526 6.70881 7.83114C6.36557 8.13628 6.1008 8.5198 5.93691 8.94923C5.77303 9.37867 5.71487 9.84135 5.76736 10.2981C5.81986 10.7548 5.98145 11.1921 6.23846 11.573L5.33196 13.132C4.43297 14.6822 3.84904 16.3952 3.61384 18.1725C3.37863 19.9497 3.49678 21.756 3.9615 23.4873H3.88298C2.77791 23.7404 1.79158 24.3625 1.08597 25.2514C0.380364 26.1403 -0.00258407 27.2432 1.31243e-05 28.3789V36.4243C1.31243e-05 37.3726 0.376022 38.2821 1.04532 38.9527C1.71462 39.6233 2.62239 40 3.56892 40H27.8375C28.784 40 29.6918 39.6233 30.3611 38.9527C31.0304 38.2821 31.4064 37.3726 31.4064 36.4243V28.3789C31.4056 27.2507 31.0245 26.1559 30.3249 25.2719C29.6253 24.3879 28.6482 23.7666 27.552 23.5088ZM26.0816 23.1584L24.5969 22.8365C24.2224 21.7901 23.5837 20.8587 22.7431 20.133C21.9025 19.4074 20.8887 18.9122 19.8003 18.6959C20.7415 18.0348 21.5095 17.1558 22.0389 16.1336C22.5683 15.1114 22.8435 13.9762 22.841 12.8245C23.2782 12.8236 23.7089 12.7182 24.0973 12.517L24.8753 13.8472C25.6824 15.2416 26.2047 16.7829 26.4118 18.3814C26.6189 19.9799 26.5066 21.6037 26.0816 23.1584ZM24.2686 30.7031C24.5509 30.7031 24.8269 30.787 25.0617 30.9442C25.2964 31.1013 25.4794 31.3247 25.5875 31.5861C25.6955 31.8474 25.7238 32.135 25.6687 32.4124C25.6136 32.6899 25.4777 32.9448 25.278 33.1448C25.0784 33.3448 24.824 33.481 24.5471 33.5362C24.2702 33.5914 23.9831 33.5631 23.7223 33.4548C23.4614 33.3466 23.2385 33.1632 23.0816 32.928C22.9247 32.6928 22.841 32.4163 22.841 32.1334C22.841 31.7541 22.9914 31.3903 23.2591 31.122C23.5268 30.8538 23.89 30.7031 24.2686 30.7031ZM9.99295 12.1094V8.53365H11.6489C12.3548 8.5347 13.05 8.36093 13.6726 8.0278C14.2953 7.69467 14.8261 7.21251 15.2178 6.62422L15.6461 5.97344C15.7154 5.86868 15.8111 5.78408 15.9235 5.72818C16.0359 5.67228 16.161 5.64705 16.2862 5.65502C16.4114 5.663 16.5323 5.70391 16.6367 5.77362C16.7412 5.84333 16.8254 5.93938 16.8809 6.0521L16.9309 6.15937C17.2864 6.87292 17.8335 7.47307 18.5105 7.89246C19.1876 8.31186 19.9679 8.53389 20.7639 8.53365H21.4134V12.8245C21.4134 14.3419 20.8118 15.7971 19.7409 16.87C18.6701 17.9429 17.2176 18.5457 15.7032 18.5457C14.1887 18.5457 12.7363 17.9429 11.6654 16.87C10.5946 15.7971 9.99295 14.3419 9.99295 12.8245V12.1094ZM15.7032 23.9736L13.5619 21.8282V19.647C14.9558 20.0862 16.4506 20.0862 17.8445 19.647V21.8282L15.7032 23.9736ZM12.1343 21.5564L8.56538 22.3932C8.94889 21.7597 9.46795 21.2194 10.0851 20.8113C10.7023 20.4032 11.4022 20.1374 12.1343 20.0332V21.5564ZM12.6268 22.9081L14.6968 24.982L13.3477 26.3264C13.2143 26.4575 13.0349 26.5309 12.8481 26.5309C12.6612 26.5309 12.4819 26.4575 12.3484 26.3264L9.63606 23.616L12.6268 22.9081ZM18.7796 22.9081L21.7703 23.6232L19.058 26.3336C18.9245 26.4646 18.7452 26.538 18.5583 26.538C18.3715 26.538 18.1921 26.4646 18.0587 26.3336L16.7096 24.982L18.7796 22.9081ZM19.2721 21.5564V20.0332C20.0042 20.1374 20.7041 20.4032 21.3213 20.8113C21.9384 21.2194 22.4575 21.7597 22.841 22.3932L19.2721 21.5564ZM24.2686 9.96394C24.2686 10.3433 24.1182 10.7071 23.8504 10.9753C23.5827 11.2435 23.2196 11.3942 22.841 11.3942V8.53365C23.2196 8.53365 23.5827 8.68434 23.8504 8.95257C24.1182 9.22081 24.2686 9.5846 24.2686 9.96394ZM15.7032 1.38221C17.2828 1.38296 18.8068 1.96681 19.984 3.02219C21.1611 4.07758 21.9089 5.53051 22.0844 7.10336H20.7639C20.2335 7.10374 19.7134 6.95608 19.2621 6.67692C18.8107 6.39776 18.4459 5.99815 18.2086 5.52289L18.1586 5.41562C17.9895 5.08087 17.7357 4.7964 17.4226 4.59061C17.1095 4.38481 16.748 4.26488 16.3741 4.24279C15.9995 4.21528 15.6244 4.28902 15.2879 4.45633C14.9514 4.62363 14.6659 4.87836 14.4612 5.19393L14.0258 5.84471C13.7632 6.23392 13.409 6.55236 12.9945 6.77188C12.5799 6.99139 12.1178 7.10524 11.6489 7.10336H9.32199C9.49751 5.53051 10.2453 4.07758 11.4224 3.02219C12.5996 1.96681 14.1236 1.38296 15.7032 1.38221ZM8.56538 8.53365V11.3942C8.18677 11.3942 7.82367 11.2435 7.55595 10.9753C7.28823 10.7071 7.13782 10.3433 7.13782 9.96394C7.13782 9.5846 7.28823 9.22081 7.55595 8.95257C7.82367 8.68434 8.18677 8.53365 8.56538 8.53365ZM6.53111 13.8472L7.30913 12.517C7.6975 12.7182 8.12818 12.8236 8.56538 12.8245C8.56751 13.9713 8.84487 15.1008 9.37408 16.1177C9.90329 17.1345 10.6688 18.009 11.6061 18.6672C10.5145 18.8862 9.49853 19.3857 8.65766 20.1166C7.81678 20.8475 7.17991 21.7848 6.80948 22.8365L5.32482 23.187C4.89581 21.628 4.78153 19.999 4.98866 18.3953C5.19579 16.7916 5.72017 15.2453 6.53111 13.8472ZM29.9788 36.4243C29.9788 36.9933 29.7532 37.539 29.3516 37.9413C28.9501 38.3437 28.4054 38.5697 27.8375 38.5697H3.56892C3.001 38.5697 2.45634 38.3437 2.05476 37.9413C1.65318 37.539 1.42758 36.9933 1.42758 36.4243V28.3789C1.42853 27.5743 1.70032 26.7935 2.19899 26.1628C2.69767 25.5321 3.39408 25.0884 4.17563 24.9033L6.42404 24.3598C6.42404 24.5672 6.42404 24.7746 6.42404 24.982V29.373C5.81271 29.5311 5.27093 29.8878 4.88348 30.3873C4.49603 30.8868 4.28475 31.5008 4.2827 32.1334V34.2788C4.2827 34.4685 4.3579 34.6504 4.49176 34.7845C4.62562 34.9186 4.80717 34.994 4.99648 34.994C5.18579 34.994 5.36734 34.9186 5.5012 34.7845C5.63506 34.6504 5.71026 34.4685 5.71026 34.2788V32.1334C5.71026 31.7541 5.86066 31.3903 6.12838 31.122C6.3961 30.8538 6.75921 30.7031 7.13782 30.7031C7.51644 30.7031 7.87954 30.8538 8.14726 31.122C8.41498 31.3903 8.56538 31.7541 8.56538 32.1334V34.2788C8.56538 34.4685 8.64059 34.6504 8.77445 34.7845C8.90831 34.9186 9.08986 34.994 9.27917 34.994C9.46847 34.994 9.65003 34.9186 9.78389 34.7845C9.91775 34.6504 9.99295 34.4685 9.99295 34.2788V32.1334C9.9909 31.5008 9.77962 30.8868 9.39217 30.3873C9.00471 29.8878 8.46294 29.5311 7.8516 29.373V24.982C7.85352 24.6556 7.88457 24.3302 7.94439 24.0094H8.0015L11.3349 27.3562C11.7364 27.758 12.2806 27.9837 12.8481 27.9837C13.4155 27.9837 13.9598 27.758 14.3613 27.3562L14.9894 26.7198V33.5637C14.9894 33.7534 15.0646 33.9353 15.1985 34.0694C15.3323 34.2035 15.5139 34.2788 15.7032 34.2788C15.8925 34.2788 16.0741 34.2035 16.2079 34.0694C16.3418 33.9353 16.417 33.7534 16.417 33.5637V26.7055L17.0451 27.3419C17.4466 27.7437 17.9909 27.9694 18.5583 27.9694C19.1258 27.9694 19.67 27.7437 20.0715 27.3419L23.4049 23.9951H23.462C23.5227 24.3205 23.5537 24.6509 23.5548 24.982V29.373C22.8819 29.547 22.2955 29.961 21.9055 30.5372C21.5155 31.1135 21.3486 31.8124 21.4362 32.5031C21.5238 33.1938 21.8597 33.8288 22.3812 34.2891C22.9026 34.7493 23.5736 35.0033 24.2686 35.0033C24.9635 35.0033 25.6345 34.7493 26.156 34.2891C26.6774 33.8288 27.0134 33.1938 27.1009 32.5031C27.1885 31.8124 27.0216 31.1135 26.6316 30.5372C26.2416 29.961 25.6552 29.547 24.9823 29.373V24.982C24.9823 24.7746 24.9823 24.5672 24.9823 24.3598L27.2593 24.9033C28.0356 25.0939 28.7255 25.54 29.2186 26.1702C29.7117 26.8004 29.9794 27.5782 29.9788 28.3789V36.4243Z" fill="#3A0469"/>
</svg>
