<svg width="29" height="40" viewBox="0 0 29 40" fill="none" xmlns="http://www.w3.org/2000/svg">
<path d="M12.0001 3.20312H7.20015C6.75796 3.20312 6.40015 3.56094 6.40015 4.00313C6.40015 4.44531 6.75796 4.80313 7.20015 4.80313H12.0001C12.4423 4.80313 12.8001 4.44531 12.8001 4.00313C12.8001 3.56094 12.4423 3.20312 12.0001 3.20312Z" fill="#3A0469"/>
<path d="M15.2006 4.80313C15.6425 4.80313 16.0006 4.44495 16.0006 4.00313C16.0006 3.5613 15.6425 3.20312 15.2006 3.20312C14.7588 3.20312 14.4006 3.5613 14.4006 4.00313C14.4006 4.44495 14.7588 4.80313 15.2006 4.80313Z" fill="#3A0469"/>
<path d="M9.60005 36.7953H12.8C13.2422 36.7953 13.6 36.4375 13.6 35.9953C13.6 35.5531 13.2422 35.1953 12.8 35.1953H9.60005C9.15786 35.1953 8.80005 35.5531 8.80005 35.9953C8.80005 36.4375 9.15786 36.7953 9.60005 36.7953Z" fill="#3A0469"/>
<path d="M19.1985 19.2094H22.3985C22.8407 19.2094 23.1985 18.8516 23.1985 18.4094V16.8094H24.7985C25.2407 16.8094 25.5985 16.4516 25.5985 16.0094V12.8094C25.5985 12.3672 25.2407 12.0094 24.7985 12.0094H23.1985V10.4094C23.1985 9.96719 22.8407 9.60938 22.3985 9.60938H19.1985C18.7564 9.60938 18.3985 9.96719 18.3985 10.4094V12.0094H16.7985C16.3564 12.0094 15.9985 12.3672 15.9985 12.8094V16.0094C15.9985 16.4516 16.3564 16.8094 16.7985 16.8094H18.3985V18.4094C18.3985 18.8516 18.7564 19.2094 19.1985 19.2094ZM17.5985 15.2094V13.6094H19.1985C19.6407 13.6094 19.9985 13.2516 19.9985 12.8094V11.2094H21.5985V12.8094C21.5985 13.2516 21.9564 13.6094 22.3985 13.6094H23.9985V15.2094H22.3985C21.9564 15.2094 21.5985 15.5672 21.5985 16.0094V17.6094H19.9985V16.0094C19.9985 15.5672 19.6407 15.2094 19.1985 15.2094H17.5985Z" fill="#3A0469"/>
<path d="M28 13.6C28.4422 13.6 28.8 13.2422 28.8 12.8V10.4C28.8 10.1875 28.7156 9.98438 28.5656 9.83438L25.3656 6.63438C25.2156 6.48438 25.0125 6.4 24.8 6.4H22.4V2.4C22.4 1.07656 21.3234 0 20 0H2.4C1.07656 0 0 1.07656 0 2.4V37.6C0 38.9234 1.07656 40 2.4 40H20C21.3234 40 22.4 38.9234 22.4 37.6V22.4H24.8C25.0125 22.4 25.2156 22.3156 25.3656 22.1656L28.5656 18.9656C28.7156 18.8156 28.8 18.6125 28.8 18.4V16C28.8 15.5578 28.4422 15.2 28 15.2C27.5578 15.2 27.2 15.5578 27.2 16V18.0688L24.4688 20.8H16.8C16.5875 20.8 16.3844 20.8844 16.2344 21.0344L14.4 22.8688V10.7312L17.1312 8H24.4688L27.2 10.7312V12.8C27.2 13.2422 27.5578 13.6 28 13.6ZM16.8 6.4C16.5875 6.4 16.3844 6.48438 16.2344 6.63438L13.0344 9.83438C12.8844 9.98438 12.8 10.1875 12.8 10.4V24.7999C12.8 25.4792 13.6826 25.8487 14.1656 25.3656L17.1312 22.4H20.8V32H7.2C6.75782 32 6.4 32.3578 6.4 32.8C6.4 33.2422 6.75782 33.6 7.2 33.6H20.8V37.6C20.8 38.0414 20.4414 38.4 20 38.4H2.4C1.95859 38.4 1.6 38.0414 1.6 37.6V33.6H4C4.44218 33.6 4.8 33.2422 4.8 32.8C4.8 32.3578 4.44218 32 4 32H1.6V2.4C1.6 1.95859 1.95859 1.6 2.4 1.6H20C20.4414 1.6 20.8 1.95859 20.8 2.4V6.4H16.8Z" fill="#3A0469"/>
</svg>
