<svg width="156" height="53" viewBox="0 0 156 53" fill="none" xmlns="http://www.w3.org/2000/svg">
<g clip-path="url(#clip0_9795_2583)">
<path d="M154.853 34.0838C153.651 34.0838 152.762 36.0426 149.627 36.0426C146.493 36.0426 144.506 34.0838 144.188 30.5835H153.283C154.798 30.5835 156 29.8433 156 27.7231C156 23.4827 152.756 20.4609 148.261 20.4609C143.348 20.4609 139.215 24.3842 139.215 29.8934C139.215 36.0426 143.447 38.903 148.519 38.903C153.59 38.903 155.682 35.8312 155.682 34.8239C155.682 34.401 155.369 34.0838 154.847 34.0838H154.853ZM147.745 23.3269C149.995 23.3269 151.038 25.4471 151.197 27.7287H144.243C144.556 24.9741 145.604 23.3269 147.745 23.3269Z" fill="white"/>
<path d="M136.866 35.7254C136.289 35.4583 136.344 35.0354 136.344 33.4995V27.5617C136.344 22.4754 134.253 20.4609 130.696 20.4609C128.237 20.4609 126.464 21.4125 125.366 23.0597C124.428 21.2567 122.754 20.4609 120.558 20.4609C118.73 20.4609 117.161 21.2011 116.063 22.4754V22.0525C116.063 21.1009 115.541 20.4609 114.756 20.4609C113.45 20.4609 112.769 21.5183 110.157 22.1026C109.163 22.314 108.587 22.7926 108.587 23.4827C108.587 24.3842 109.163 24.9128 110.102 24.9128C110.887 24.9128 111.145 25.4415 111.145 27.0331V33.4995C111.145 35.0354 111.2 35.4583 110.623 35.7254C109.685 36.1484 109.366 36.4155 109.366 37.1556C109.366 38.0015 109.992 38.5357 110.936 38.5357C112.089 38.5357 111.825 38.3743 113.604 38.3743C115.382 38.3743 115.119 38.5357 116.271 38.5357C117.21 38.5357 117.841 38.007 117.841 37.1556C117.841 36.4155 117.528 36.1484 116.584 35.7254C116.008 35.4583 116.063 35.0354 116.063 33.4995V27.8289C116.063 25.23 117.369 23.427 119.46 23.427C120.822 23.427 121.288 24.1672 121.288 26.2874V33.4939C121.288 35.0298 121.343 35.4527 120.767 35.7199C119.828 36.1428 119.51 36.4099 119.51 37.15C119.51 37.9959 120.136 38.5301 121.08 38.5301C122.337 38.5301 122.073 38.3688 123.747 38.3688C125.421 38.3688 125.158 38.5301 126.415 38.5301C127.353 38.5301 127.985 38.0015 127.985 37.15C127.985 36.4099 127.672 36.1428 126.728 35.7199C126.151 35.4527 126.206 35.0298 126.206 33.4939V27.8233C126.206 25.2245 127.513 23.4215 129.604 23.4215C130.965 23.4215 131.432 24.1616 131.432 26.2818V33.4883C131.432 35.0243 131.487 35.4472 130.91 35.7143C129.972 36.1372 129.653 36.4043 129.653 37.1445C129.653 37.9903 130.279 38.5246 131.223 38.5246C132.48 38.5246 132.217 38.3632 133.891 38.3632C135.565 38.3632 135.301 38.5246 136.558 38.5246C137.497 38.5246 138.128 37.9959 138.128 37.1445C138.128 36.4043 137.815 36.1372 136.871 35.7143L136.866 35.7254Z" fill="white"/>
<path d="M106.232 35.6731C104.926 35.4616 104.558 34.933 104.558 33.5529V22.0502C104.558 21.0987 104.037 20.4587 103.252 20.4587C101.945 20.4587 101.265 21.516 98.652 22.1003C97.6585 22.3118 97.0822 22.7904 97.0822 23.4804C97.0822 24.3819 97.6585 24.9106 98.5971 24.9106C99.3821 24.9106 99.64 25.4393 99.64 27.0308V31.1099C99.64 34.5546 98.1251 36.0404 95.9789 36.0404C94.0962 36.0404 93.3113 34.6603 93.3113 32.4343V22.0447C93.3113 21.0931 92.7899 20.4531 92.005 20.4531C90.6986 20.4531 90.018 21.5105 87.4053 22.0948C86.4118 22.3062 85.8354 22.7848 85.8354 23.4749C85.8354 24.3764 86.4118 24.905 87.3504 24.905C88.1353 24.905 88.3933 25.4337 88.3933 27.0253V32.323C88.3933 36.5635 90.4845 38.8952 94.4036 38.8952C96.8627 38.8952 98.9539 37.9937 100.101 36.4577L100.205 36.6692C100.99 38.3665 102.505 38.8952 104.124 38.8952C105.744 38.8952 107.473 37.7822 107.473 36.7193C107.473 36.1906 107.16 35.8178 106.216 35.662L106.232 35.6731Z" fill="white"/>
<path d="M83.7496 35.722C83.1733 35.4549 83.2282 35.032 83.2282 33.4961V13.2009C83.2282 12.2493 82.7068 11.6094 81.9218 11.6094C80.6155 11.6094 79.9349 12.6667 77.3221 13.251C76.3287 13.4625 75.7523 13.9411 75.7523 14.6311C75.7523 15.5326 76.3287 16.0613 77.2673 16.0613C78.0522 16.0613 78.3101 16.5899 78.3101 18.1815V33.5016C78.3101 35.0376 78.365 35.4605 77.7887 35.7276C76.8501 36.1505 76.4275 36.4176 76.4275 37.1578C76.4275 38.0036 77.0532 38.5379 77.9973 38.5379C79.2542 38.5379 78.9908 38.3765 80.7692 38.3765C82.5476 38.3765 82.2841 38.5379 83.5411 38.5379C84.4797 38.5379 85.1109 38.0092 85.1109 37.1578C85.1109 36.4176 84.6937 36.1505 83.7496 35.7276V35.722Z" fill="white"/>
<path d="M67.8044 20.4587C65.5046 20.4587 63.3584 21.3602 61.7392 22.8961V22.0502C61.7392 21.0987 61.2177 20.4587 60.4328 20.4587C59.1265 20.4587 58.4458 21.516 55.8331 22.1003C54.8396 22.3118 54.2633 22.7904 54.2633 23.4804C54.2633 24.3819 54.8396 24.9106 55.7782 24.9106C56.5632 24.9106 56.8211 25.4393 56.8211 27.0308V41.9225C56.8211 43.4584 56.876 43.8813 56.2997 44.1484C55.3611 44.5714 54.9384 44.8385 54.9384 45.5786C54.9384 46.4245 55.5642 46.9587 56.5083 46.9587C57.7652 46.9587 57.5018 46.7973 59.2802 46.7973C61.0586 46.7973 60.7951 46.9587 62.0521 46.9587C62.9907 46.9587 63.6219 46.43 63.6219 45.5786C63.6219 44.8385 63.2047 44.5714 62.2606 44.1484C61.6843 43.8813 61.7392 43.4584 61.7392 41.9225V37.1534C62.9961 38.2663 64.6154 38.9007 66.4432 38.9007C71.4106 38.9007 75.1211 34.1316 75.1211 28.8283C75.1211 23.5249 71.7235 20.4531 67.8044 20.4531V20.4587ZM65.8723 35.9903C63.051 35.9903 61.2726 33.6586 61.2726 29.8967C61.2726 26.1349 63.2047 23.486 66.2401 23.486C68.8034 23.486 70.3677 26.0291 70.3677 30.0581C70.3677 33.7143 68.6442 35.9959 65.8723 35.9959V35.9903Z" fill="white"/>
<path d="M41.7705 7.31226C40.9362 3.60048 38.0051 0 31.0507 0C21.8513 0 14.1668 6.62778 8.78224 14.9974C7.16301 10.6512 5.85666 7.68511 5.85666 7.68511L1.46554 9.53822C1.46554 9.53822 3.55681 14.3073 5.69748 20.5122C2.03638 27.8801 0 35.721 0 41.2358C0 49.8725 3.60621 53 7.58017 53C9.51226 53 15.1603 52.0985 15.1603 41.2358C15.1603 35.3537 13.0691 27.5629 10.8735 20.9351C15.5281 12.3485 22.5319 4.82476 31.0507 4.82476C34.9698 4.82476 36.6439 6.31058 37.1653 8.21934C24.7769 11.5583 19.7051 19.6663 19.7051 24.224C19.7051 28.2529 22.5813 30.6347 26.1875 30.6347C31.7807 30.6347 40.6179 22.4209 41.8693 12.137C44.0155 11.8198 46.4196 11.6084 49.0323 11.6084V6.7836C46.4196 6.7836 44.0155 6.94498 41.765 7.31226H41.7705ZM7.58017 48.1808C5.4889 48.1808 4.75888 46.3778 4.75888 41.2358C4.75888 37.7355 5.85666 32.7049 7.89304 27.4572C9.30368 32.332 10.4015 37.3682 10.4015 41.2358C10.4015 46.3778 9.67144 48.1808 7.58017 48.1808ZM26.0338 25.8656C25.0404 25.8656 24.464 25.2813 24.464 24.1683C24.464 21.8867 27.9659 16.2717 36.8525 13.3557C35.129 20.0336 29.2723 25.8656 26.0284 25.8656H26.0338Z" fill="#A57CE4"/>
</g>
<defs>
<clipPath id="clip0_9795_2583">
<rect width="156" height="53" fill="white"/>
</clipPath>
</defs>
</svg>
