<svg width="153" height="52" viewBox="0 0 153 52" fill="none" xmlns="http://www.w3.org/2000/svg">
<g clip-path="url(#clip0_8783_2847)">
<path d="M151.875 33.4361C150.696 33.4361 149.824 35.358 146.75 35.358C143.676 35.358 141.727 33.4361 141.415 30.0019H150.335C151.821 30.0019 153 29.2757 153 27.1955C153 23.035 149.818 20.0703 145.409 20.0703C140.591 20.0703 136.538 23.9195 136.538 29.3248C136.538 35.358 140.688 38.1644 145.662 38.1644C150.637 38.1644 152.688 35.1505 152.688 34.1623C152.688 33.7473 152.381 33.4361 151.869 33.4361H151.875ZM144.903 22.8822C147.111 22.8822 148.133 24.9624 148.29 27.2009H141.469C141.776 24.4983 142.804 22.8822 144.903 22.8822Z" fill="#3A0469"/>
<path d="M134.234 35.0468C133.668 34.7847 133.722 34.3698 133.722 32.8628V27.0371C133.722 22.0468 131.671 20.0703 128.183 20.0703C125.771 20.0703 124.032 21.004 122.956 22.6201C122.035 20.8511 120.393 20.0703 118.24 20.0703C116.447 20.0703 114.907 20.7965 113.831 22.0468V21.6318C113.831 20.6982 113.319 20.0703 112.55 20.0703C111.268 20.0703 110.601 21.1077 108.038 21.681C107.064 21.8885 106.499 22.358 106.499 23.035C106.499 23.9195 107.064 24.4382 107.984 24.4382C108.754 24.4382 109.007 24.9569 109.007 26.5184V32.8628C109.007 34.3698 109.061 34.7847 108.496 35.0468C107.575 35.4617 107.263 35.7238 107.263 36.45C107.263 37.2799 107.877 37.804 108.803 37.804C109.933 37.804 109.675 37.6457 111.419 37.6457C113.163 37.6457 112.905 37.804 114.035 37.804C114.956 37.804 115.575 37.2853 115.575 36.45C115.575 35.7238 115.268 35.4617 114.342 35.0468C113.777 34.7847 113.831 34.3698 113.831 32.8628V27.2992C113.831 24.7494 115.112 22.9804 117.163 22.9804C118.498 22.9804 118.956 23.7066 118.956 25.7868V32.8574C118.956 34.3643 119.01 34.7793 118.444 35.0413C117.524 35.4563 117.212 35.7184 117.212 36.4445C117.212 37.2744 117.825 37.7986 118.751 37.7986C119.984 37.7986 119.726 37.6402 121.367 37.6402C123.009 37.6402 122.751 37.7986 123.984 37.7986C124.904 37.7986 125.523 37.2799 125.523 36.4445C125.523 35.7184 125.217 35.4563 124.291 35.0413C123.725 34.7793 123.779 34.3643 123.779 32.8574V27.2937C123.779 24.744 125.06 22.975 127.111 22.975C128.447 22.975 128.904 23.7011 128.904 25.7814V32.8519C128.904 34.3588 128.958 34.7738 128.393 35.0359C127.472 35.4508 127.16 35.7129 127.16 36.4391C127.16 37.269 127.774 37.7931 128.7 37.7931C129.932 37.7931 129.674 37.6348 131.316 37.6348C132.958 37.6348 132.699 37.7931 133.932 37.7931C134.853 37.7931 135.472 37.2744 135.472 36.4391C135.472 35.7129 135.165 35.4508 134.239 35.0359L134.234 35.0468Z" fill="#3A0469"/>
<path d="M104.189 34.9992C102.908 34.7917 102.547 34.273 102.547 32.919V21.6334C102.547 20.6998 102.036 20.0719 101.266 20.0719C99.9848 20.0719 99.3173 21.1092 96.7548 21.6825C95.7804 21.89 95.2152 22.3596 95.2152 23.0366C95.2152 23.9211 95.7804 24.4398 96.701 24.4398C97.4708 24.4398 97.7238 24.9585 97.7238 26.52V30.5221C97.7238 33.9018 96.238 35.3596 94.1331 35.3596C92.2866 35.3596 91.5168 34.0055 91.5168 31.8215V21.6279C91.5168 20.6943 91.0054 20.0664 90.2356 20.0664C88.9543 20.0664 88.2868 21.1038 85.7243 21.6771C84.7499 21.8846 84.1847 22.3541 84.1847 23.0311C84.1847 23.9156 84.7499 24.4343 85.6705 24.4343C86.4403 24.4343 86.6933 24.953 86.6933 26.5145V31.7124C86.6933 35.8728 88.7444 38.1605 92.5881 38.1605C94.9998 38.1605 97.0509 37.276 98.176 35.7691L98.2783 35.9765C99.0481 37.6418 100.534 38.1605 102.122 38.1605C103.71 38.1605 105.406 37.0685 105.406 36.0257C105.406 35.507 105.099 35.1412 104.173 34.9883L104.189 34.9992Z" fill="#3A0469"/>
<path d="M82.1391 35.0483C81.5738 34.7863 81.6276 34.3713 81.6276 32.8644V12.9522C81.6276 12.0185 81.1162 11.3906 80.3464 11.3906C79.0652 11.3906 78.3976 12.428 75.8352 13.0013C74.8608 13.2088 74.2955 13.6783 74.2955 14.3553C74.2955 15.2398 74.8608 15.7585 75.7813 15.7585C76.5512 15.7585 76.8042 16.2772 76.8042 17.8388V32.8698C76.8042 34.3768 76.858 34.7917 76.2928 35.0538C75.3722 35.4687 74.9577 35.7308 74.9577 36.457C74.9577 37.2869 75.5714 37.811 76.4973 37.811C77.7301 37.811 77.4717 37.6527 79.2159 37.6527C80.9601 37.6527 80.7017 37.811 81.9345 37.811C82.855 37.811 83.4741 37.2923 83.4741 36.457C83.4741 35.7308 83.065 35.4687 82.1391 35.0538V35.0483Z" fill="#3A0469"/>
<path d="M66.5004 20.0719C64.2448 20.0719 62.1399 20.9564 60.5518 22.4633V21.6334C60.5518 20.6998 60.0404 20.0719 59.2706 20.0719C57.9894 20.0719 57.3218 21.1092 54.7594 21.6825C53.785 21.89 53.2197 22.3596 53.2197 23.0366C53.2197 23.9211 53.785 24.4398 54.7055 24.4398C55.4753 24.4398 55.7284 24.9585 55.7284 26.52V41.1307C55.7284 42.6376 55.7822 43.0526 55.2169 43.3146C54.2964 43.7296 53.8819 43.9917 53.8819 44.7178C53.8819 45.5477 54.4956 46.0719 55.4215 46.0719C56.6543 46.0719 56.3959 45.9135 58.1401 45.9135C59.8843 45.9135 59.6259 46.0719 60.8587 46.0719C61.7792 46.0719 62.3983 45.5532 62.3983 44.7178C62.3983 43.9917 61.9892 43.7296 61.0633 43.3146C60.498 43.0526 60.5518 42.6376 60.5518 41.1307V36.4515C61.7846 37.5435 63.3727 38.1659 65.1654 38.1659C70.0373 38.1659 73.6764 33.4868 73.6764 28.2835C73.6764 23.0803 70.3441 20.0664 66.5004 20.0664V20.0719ZM64.6055 35.3104C61.8385 35.3104 60.0943 33.0227 60.0943 29.3318C60.0943 25.641 61.9892 23.042 64.9662 23.042C67.4802 23.042 69.0145 25.5372 69.0145 29.4902C69.0145 33.0773 67.3241 35.3159 64.6055 35.3159V35.3104Z" fill="#3A0469"/>
<path d="M40.9672 7.1743C40.149 3.53255 37.2743 0 30.4536 0C21.4311 0 13.8944 6.50273 8.61335 14.7144C7.02526 10.4502 5.74403 7.54011 5.74403 7.54011L1.43735 9.35825C1.43735 9.35825 3.48841 14.0374 5.58791 20.1252C1.99722 27.3541 0 35.047 0 40.4578C0 48.9315 3.53686 52 7.4344 52C9.32933 52 14.8688 51.1155 14.8688 40.4578C14.8688 34.6867 12.8177 27.0428 10.6644 20.5401C15.2295 12.1155 22.0986 4.73373 30.4536 4.73373C34.2973 4.73373 35.9392 6.19152 36.4506 8.06426C24.3004 11.3402 19.3262 19.2953 19.3262 23.7669C19.3262 27.7199 22.1471 30.0567 25.6839 30.0567C31.1696 30.0567 39.8367 21.9979 41.0641 11.908C43.169 11.5968 45.5269 11.3893 48.0894 11.3893V6.65561C45.5269 6.65561 43.169 6.81394 40.9619 7.1743H40.9672ZM7.4344 47.2717C5.38334 47.2717 4.66736 45.5027 4.66736 40.4578C4.66736 37.0235 5.74403 32.0878 7.74125 26.9391C9.12477 31.722 10.2014 36.6632 10.2014 40.4578C10.2014 45.5027 9.48545 47.2717 7.4344 47.2717ZM25.5332 25.3776C24.5588 25.3776 23.9936 24.8043 23.9936 23.7123C23.9936 21.4738 27.4281 15.9647 36.1438 13.1037C34.4534 19.6556 28.7094 25.3776 25.5278 25.3776H25.5332Z" fill="#A57CE4"/>
</g>
<defs>
<clipPath id="clip0_8783_2847">
<rect width="153" height="52" fill="white"/>
</clipPath>
</defs>
</svg>
