<svg width="176" height="60" viewBox="0 0 176 60" fill="none" xmlns="http://www.w3.org/2000/svg">
<path d="M133.746 17.5728C135.783 15.1814 139.608 12.9395 143.782 12.9395C148.155 12.9395 152.13 15.3807 152.13 22.804V36.0563C152.13 40.3907 152.478 42.4333 155.41 44.1273H138.019C140.95 42.4333 141.298 40.3409 141.298 36.0563V22.804C141.298 19.2667 139.161 17.7721 136.628 17.7721C135.633 17.7721 134.342 17.9713 133.696 18.1208V36.0563C133.696 40.3907 134.043 42.4333 136.975 44.1273H119.336C122.268 42.4333 122.616 40.3409 122.616 36.0563V12.1423C122.616 6.86131 122.019 4.96812 118.74 3.42367C118.74 3.42367 126.292 2.82582 133.696 0.882812L133.746 17.5728Z" fill="black"/>
<path d="M28.2581 44.1259C32.7797 41.7345 33.4257 39.4427 33.4257 33.9624V18.4183C33.4257 18.4183 29.6991 19.4148 26.9165 19.4148C34.1212 16.8739 41.8726 9.50038 46.9904 5.26562V33.265C46.9904 38.4961 47.1892 41.6348 52.158 44.1259H28.2581Z" fill="black"/>
<path d="M99.2121 15.3812H96.1814C101.846 12.5912 106.666 8.90443 110.094 5.36719V13.6872H117.548V15.3812H110.094V34.9608C110.094 38.2489 112.082 39.7934 114.963 39.7934C115.808 39.7934 117.051 39.4945 117.895 39.1955C116.405 41.5371 112.877 44.6758 108.206 44.6758C102.293 44.6758 99.1628 42.0851 99.1628 35.2597L99.2121 15.3812Z" fill="black"/>
<path d="M68.5054 38.5477C59.5615 38.5477 52.8536 33.4659 52.8536 24.1494C52.8536 16.1283 60.3069 5.96484 71.6854 5.96484C84.008 5.96484 93.3496 15.2315 93.3496 27.7863C93.3496 46.4692 75.4617 57.0312 58.8659 58.476C58.8659 58.476 74.2691 56.8817 77.9461 37.0531C77.9461 37.0531 73.3748 38.5477 68.5054 38.5477ZM79.0393 27.1885C79.0393 19.7154 77.2505 7.21036 71.8842 7.21036C68.0582 7.21036 66.3191 16.4272 66.3191 21.5089C66.3191 29.2809 69.7476 36.3556 75.0642 36.3556C76.207 36.3556 77.3001 36.1065 78.1448 35.8075C78.6417 33.7649 79.0393 29.8788 79.0393 27.1885Z" fill="black"/>
<path d="M2.42033 34.5617C3.01658 34.2628 3.11596 33.9141 3.11596 33.2166V28.3341H2.91721C2.17189 28.3341 1.87376 28.6829 0.92969 29.8786H0.880005L0.979383 28.0352H6.94194L7.04132 29.8786H6.99162C6.04755 28.6829 5.74942 28.3341 5.00411 28.3341H4.85504V33.2166C4.85504 33.9141 4.90473 34.213 5.55068 34.5119V34.5617H2.42033Z" fill="black"/>
<path d="M13.2523 34.5607C13.8486 34.2618 13.9479 33.9131 13.9479 33.2156V31.422H11.4636V33.2156C11.4636 33.9131 11.5132 34.2119 12.1591 34.5109V34.5607H9.02881V34.5109C9.6251 34.2119 9.72445 33.9131 9.72445 33.2156V29.2797C9.72445 28.5823 9.67482 28.3331 9.02881 28.0342V27.9844H12.1591V28.0342C11.5629 28.3331 11.4636 28.5823 11.4636 29.2797V30.9736H13.9479V29.2797C13.9479 28.5823 13.8983 28.3331 13.2523 28.0342V27.9844H16.3827V28.0342C15.7864 28.3331 15.6871 28.5823 15.6871 29.2797V33.2156C15.6871 33.9131 15.7367 34.2119 16.3827 34.5109V34.5607H13.2523Z" fill="black"/>
<path d="M18.5688 34.5607C19.1651 34.2618 19.2645 33.9131 19.2645 33.2156V29.2797C19.2645 28.5823 19.2149 28.3331 18.5688 28.0342V27.9844H23.5377V29.8277H23.488C22.7924 28.7815 22.5439 28.3829 21.6993 28.3829H21.0533V31.0235H21.5005C22.2955 31.0235 22.6433 30.8241 23.0408 30.1765H23.0905V32.1195H23.0408C22.6433 31.5216 22.2458 31.3224 21.5005 31.3224H21.0533V34.1622H21.7489C22.7427 34.1622 23.0408 33.6141 23.9352 32.5678H23.9849L23.7861 34.5109L18.5688 34.5607Z" fill="black"/>
<path d="M159.882 7.45774L156.651 5.26562L154.267 6.71043L158.292 9.50041L159.584 8.80291L159.882 7.45774Z" fill="#F9135C"/>
<path d="M161.869 10.4475L161.621 11.7926L164.751 13.9848L167.186 12.4901L163.211 9.75L161.869 10.4475Z" fill="#F9135C"/>
<path d="M158.292 9.5L153.373 11.9911L155.857 13.4857L159.037 11.8416L159.335 10.2473L158.292 9.5Z" fill="#00C6F3"/>
<path d="M163.211 9.75128L168.08 7.26024L165.596 5.76562L162.416 7.40971L162.117 9.00402L163.211 9.75128Z" fill="#00C6F3"/>
<path d="M159.584 8.80469L158.292 9.50217L159.335 10.2495L159.584 8.80469Z" fill="#563A88"/>
<path d="M161.869 10.4487L163.211 9.75117L162.117 9.00391L161.869 10.4487Z" fill="#563A88"/>
<path d="M159.037 11.8411L158.093 16.8232L160.975 15.0794L161.621 11.7913L160.577 11.0938L159.037 11.8411Z" fill="#51338D"/>
<path d="M162.415 7.40786L163.36 2.42578L160.478 4.11969L159.882 7.45768L160.875 8.15517L162.415 7.40786Z" fill="#51338D"/>
<path d="M160.875 8.15452L159.882 7.45703L159.584 8.80219L160.875 8.15452Z" fill="#612058"/>
<path d="M160.577 11.0969L161.621 11.7944L161.869 10.4492L160.577 11.0969Z" fill="#612058"/>
<path d="M162.117 9.00445L162.415 7.41016L160.875 8.15746L162.117 9.00445Z" fill="#35217F"/>
<path d="M159.335 10.25L159.037 11.8443L160.577 11.097L159.335 10.25Z" fill="#35217F"/>
<path d="M160.875 8.15625L159.584 8.80392L159.335 10.2488L160.577 11.0956L161.869 10.448L162.117 9.00324L160.875 8.15625Z" fill="#2B2259"/>
</svg>
