<svg width="176" height="43" viewBox="0 0 176 43" fill="none" xmlns="http://www.w3.org/2000/svg">
<g clip-path="url(#clip0_9525_1581)">
<mask id="mask0_9525_1581" style="mask-type:luminance" maskUnits="userSpaceOnUse" x="0" y="0" width="176" height="43">
<path d="M176 0H0V43H176V0Z" fill="white"/>
</mask>
<g mask="url(#mask0_9525_1581)">
<path d="M23.328 41.9642L17.1373 1.48047H6.15858L0.118652 41.9642H8.25409L8.95312 36.1417H13.3939L13.8448 41.9642H23.328ZM12.5975 27.9462H10.0009L11.6 15.1449L12.5975 27.9462Z" fill="black"/>
<path d="M45.5304 34.0697V9.37494C45.5304 3.55562 40.9875 1.48047 36.5954 1.48047H24.3176V41.9642H36.5954C40.989 41.9642 45.5304 39.8891 45.5304 34.0697ZM36.8954 32.7032C36.8954 33.8674 36.3472 34.3214 35.2994 34.3214H33.5023V9.17432H35.2994C36.3487 9.17432 36.8954 9.62817 36.8954 10.7924V32.7032Z" fill="black"/>
<path d="M68.9173 1.48047H60.0843L57.3887 24.1001L55.0435 1.48047H45.4597L52.9464 41.9642H61.4337L68.9173 1.48047Z" fill="black"/>
<path d="M91.0789 33.7673V9.68098C91.0789 5.58325 86.2881 0.722656 79.9483 0.722656C73.5577 0.722656 68.7666 5.58325 68.7666 9.68098V33.7673C68.7666 37.8651 73.5577 42.7225 79.9483 42.7225C86.2881 42.7225 91.0789 37.8667 91.0789 33.7673ZM81.7951 33.0587C81.7951 34.1209 80.9469 34.7787 79.9498 34.7787C78.9016 34.7787 78.0534 34.1209 78.0534 33.0587V10.3897C78.0534 9.32745 78.9016 8.6697 79.9498 8.6697C80.9469 8.6697 81.7951 9.32745 81.7951 10.3897V33.0587Z" fill="black"/>
<path d="M115.295 34.2722V26.4797H106.211V33.0571C106.211 34.1194 105.363 34.7771 104.313 34.7771C103.165 34.7771 102.316 34.1194 102.316 33.0571V10.3881C102.316 9.32587 103.165 8.66813 104.313 8.66813C105.363 8.66813 106.211 9.32587 106.211 10.3881V16.9671H115.295V9.17451C115.295 5.07521 110.952 0.722656 104.314 0.722656C97.5776 0.722656 93.0342 5.07681 93.0342 9.17451V34.2722C93.0342 38.3699 97.5776 42.7225 104.314 42.7225C110.954 42.7209 115.295 38.3699 115.295 34.2722Z" fill="black"/>
<path d="M138.614 41.9642L132.427 1.48047H121.445L115.408 41.9642H123.542L124.243 36.1417H128.682L129.133 41.9642H138.614ZM127.884 27.9462H125.289L126.887 15.1449L127.884 27.9462Z" fill="black"/>
<path d="M156.824 8.66786V1.48047H135.211V8.66786H141.551V41.9642H150.734V8.66786H156.824Z" fill="black"/>
<path d="M175.583 41.9642V34.2719H167.124V25.062H173.014V17.3714H167.124V8.66786H175.583V1.48047H157.939V41.9642H175.583Z" fill="black"/>
</g>
</g>
<defs>
<clipPath id="clip0_9525_1581">
<rect width="176" height="43" fill="white"/>
</clipPath>
</defs>
</svg>
