<svg width="176" height="70" viewBox="0 0 176 70" fill="none" xmlns="http://www.w3.org/2000/svg">
<g clip-path="url(#clip0_9525_1563)">
<path d="M14.8132 69.9138L14.7546 54.3906L1.26123 62.1814L14.8132 69.9138Z" fill="url(#paint0_linear_9525_1563)"/>
<path d="M33.44 37.9043L33.3813 21.9727L0 41.2307V57.1331L33.44 37.9043Z" fill="url(#paint1_linear_9525_1563)"/>
<path d="M33.44 15.9316L33.3813 0L0 19.258V35.1605L33.44 15.9316Z" fill="url(#paint2_linear_9525_1563)"/>
<path d="M54.384 69.7663H52.184V63.2302H45.408V69.7663H43.208V55.1185H45.408V61.0418H52.184V55.1185H54.384V69.7663ZM66.8507 64.0472C66.8507 64.4557 66.8213 64.8059 66.792 65.0393H59.488C59.7227 67.1402 60.9253 68.0447 62.2747 68.0447C63.2133 68.0447 63.9467 67.7237 64.68 67.1694L65.9707 68.5408C65.0027 69.4745 63.8587 69.9705 62.1573 69.9705C59.576 69.9705 57.376 67.8988 57.376 64.2515C57.376 60.5166 59.3413 58.5324 62.216 58.5324C65.3253 58.5616 66.8507 61.071 66.8507 64.0472ZM64.6507 63.2594C64.5333 61.7421 63.8293 60.4874 62.04 60.4874C60.6027 60.4874 59.6933 61.4795 59.5173 63.2594H64.6507ZM77.8507 69.7663H75.7387V68.6866C74.976 69.4453 73.92 69.9997 72.7173 69.9997C70.928 69.9997 68.904 69.0076 68.904 66.294C68.904 63.843 70.8107 62.7342 73.304 62.7342C74.3307 62.7342 75.152 62.8801 75.768 63.1427V62.3257C75.768 61.1293 75.0347 60.4582 73.6853 60.4582C72.5413 60.4582 71.6613 60.6625 70.8107 61.1585L69.96 59.5245C71.016 58.8826 72.1893 58.5324 73.744 58.5324C76.208 58.5324 77.88 59.7288 77.88 62.209V69.7663H77.8507ZM75.7093 66.6441V65.0685C75.1227 64.7767 74.36 64.6016 73.1867 64.6016C71.808 64.6016 70.928 65.2435 70.928 66.2356C70.928 67.3152 71.632 68.0447 73.04 68.0447C74.2133 68.0447 75.2107 67.3444 75.7093 66.6441ZM83.2187 69.7663H81.048V55.6437L83.2187 54.5057V69.7663ZM92.048 67.5779L91.784 69.4745C91.256 69.7663 90.5227 69.9705 89.672 69.9705C88.1467 69.9705 87.1787 69.0368 87.1787 67.0526V60.7208H85.5947V58.7658H87.1787V55.6145L89.2907 54.4766V58.7367H92.0187V60.6917H89.2907V66.6441C89.2907 67.6654 89.6133 67.9572 90.4347 67.9572C91.0213 68.0155 91.6667 67.8113 92.048 67.5779ZM103.869 69.7663H101.699V63.5512C101.699 61.3336 100.848 60.5458 99.44 60.5458C98.0027 60.5458 97.1813 61.567 97.1813 63.3469V69.7663H95.0107V55.6437L97.1813 54.5057V59.8163C97.7387 59.0285 98.824 58.5324 99.968 58.5324C102.52 58.5324 103.899 60.1956 103.899 63.4345V69.7663H103.869ZM115.221 60.3999L113.931 61.9172C113.021 60.9834 112.229 60.5749 111.232 60.5749C109.648 60.5749 108.651 61.9755 108.651 64.2223C108.651 66.3815 109.589 67.928 111.291 67.928C112.317 67.928 112.933 67.4611 113.784 66.5566L115.163 67.928C114.312 69.0076 113.197 69.9705 111.203 69.9705C108.504 69.9705 106.421 67.7238 106.421 64.2806C106.421 60.6333 108.563 58.5324 111.261 58.5324C112.933 58.5616 114.195 59.2035 115.221 60.3999ZM126.075 69.7663H123.963V68.6866C123.2 69.4453 122.144 69.9997 120.941 69.9997C119.152 69.9997 117.128 69.0076 117.128 66.294C117.128 63.843 119.035 62.7342 121.528 62.7342C122.555 62.7342 123.376 62.8801 123.992 63.1427V62.3257C123.992 61.1293 123.259 60.4582 121.909 60.4582C120.765 60.4582 119.885 60.6625 119.035 61.1585L118.184 59.5245C119.24 58.8826 120.413 58.5324 121.968 58.5324C124.432 58.5324 126.104 59.7288 126.104 62.209V69.7663H126.075ZM123.933 66.6441V65.0685C123.347 64.7767 122.584 64.6016 121.411 64.6016C120.032 64.6016 119.152 65.2435 119.152 66.2356C119.152 67.3152 119.856 68.0447 121.264 68.0447C122.437 68.0447 123.435 67.3444 123.933 66.6441ZM135.725 58.9993L135.168 61.0418C134.699 60.7792 134.229 60.6333 133.496 60.6333C132.117 60.6333 131.325 61.5962 131.325 63.4636V69.7371H129.155V58.7658H131.325V59.8163C131.824 59.0868 132.763 58.5324 133.848 58.5324C134.757 58.5616 135.285 58.7075 135.725 58.9993ZM146.403 64.0472C146.403 64.4557 146.373 64.8059 146.344 65.0393H139.04C139.275 67.1402 140.477 68.0447 141.827 68.0447C142.765 68.0447 143.499 67.7237 144.232 67.1694L145.523 68.5408C144.555 69.4745 143.411 69.9705 141.709 69.9705C139.128 69.9705 136.928 67.8988 136.928 64.2515C136.928 60.5166 138.893 58.5324 141.768 58.5324C144.877 58.5616 146.403 61.071 146.403 64.0472ZM144.203 63.2594C144.085 61.7421 143.381 60.4874 141.592 60.4874C140.155 60.4874 139.245 61.4795 139.069 63.2594H144.203Z" fill="black"/>
<path d="M43.3547 21.795H64.0347L60.0161 28.6228H52.3307V33.875H60.1334V40.3819H52.3307V49.8358H43.3547V21.795ZM66.2641 21.795H75.2694V49.865H66.2641V21.795ZM79.7281 21.795H98.8534V28.5645H88.6161V32.5036H96.6827V38.6895H88.6161V43.0664H99.4401V49.8358H79.7281V21.795ZM102.667 21.795H113.989C121.499 21.795 125.165 24.9755 125.165 30.6945V31.1614C125.165 34.8379 123.317 36.968 120.736 38.2227L126.72 49.8358H117.421L112.611 40.0609H111.555V49.8358H102.667V21.795ZM113.344 34.4294C115.544 34.4294 116.541 33.4373 116.541 31.5115V31.0155C116.541 29.1772 115.515 28.4186 113.432 28.4186H111.525V34.4294H113.344ZM127.365 36.9388V34.7212C127.365 26.522 132.381 21.3281 140.947 21.3281C148.867 21.3281 153.267 24.6545 153.267 32.3869H144.701C144.672 29.79 143.557 28.331 141.005 28.331C138.248 28.331 136.752 30.4903 136.752 34.6628V36.8513C136.752 41.053 138.043 43.2122 141.064 43.2122C143.557 43.2122 145.083 41.9576 145.083 38.923H153.413C153.413 46.3927 148.925 50.3027 140.947 50.3027C131.589 50.3611 127.365 44.9922 127.365 36.9388ZM156.259 21.795H175.413V28.5645H165.147V32.5036H173.243V38.6895H165.147V43.0664H176V49.8358H156.259V21.795Z" fill="black"/>
</g>
<defs>
<linearGradient id="paint0_linear_9525_1563" x1="13.9576" y1="55.5061" x2="7.39715" y2="67.2988" gradientUnits="userSpaceOnUse">
<stop stop-color="#F16923"/>
<stop offset="0.785" stop-color="#EB222A"/>
</linearGradient>
<linearGradient id="paint1_linear_9525_1563" x1="31.5418" y1="22.801" x2="9.58272" y2="47.9109" gradientUnits="userSpaceOnUse">
<stop stop-color="#F16923"/>
<stop offset="0.785" stop-color="#EB222A"/>
</linearGradient>
<linearGradient id="paint2_linear_9525_1563" x1="31.5421" y1="0.816424" x2="9.58301" y2="25.926" gradientUnits="userSpaceOnUse">
<stop stop-color="#F16923"/>
<stop offset="0.785" stop-color="#EB222A"/>
</linearGradient>
<clipPath id="clip0_9525_1563">
<rect width="176" height="70" fill="white"/>
</clipPath>
</defs>
</svg>
