<svg width="176" height="44" viewBox="0 0 176 44" fill="none" xmlns="http://www.w3.org/2000/svg">
<path d="M99.7718 14.3421C99.7718 9.20724 99.8607 4.42656 100.127 0L86.5341 2.5674V3.80684L87.8667 3.9839C88.844 4.07243 89.4659 4.42656 89.8213 4.95775C90.1767 5.57746 90.4432 6.46278 90.6209 7.79074C90.7986 10.3581 90.9763 16.2012 90.8874 25.4085C90.8874 34.5272 90.7986 40.2817 90.6209 42.495C95.5073 43.5573 99.3276 44 102.171 44C107.501 44 111.677 42.495 114.698 39.3964C117.718 36.3863 119.318 32.1368 119.318 26.9135C119.318 22.7525 118.163 19.2998 115.853 16.5553C113.543 13.8109 110.611 12.4829 107.146 12.4829C104.836 12.4829 102.437 13.1026 99.7718 14.3421ZM100.038 41.6097C99.8607 38.7767 99.683 30.2777 99.683 16.3783C100.483 16.1127 101.549 15.9356 102.881 15.9356C105.014 15.9356 106.702 16.998 107.945 19.2113C109.189 21.4245 109.811 24.0805 109.811 27.4447C109.811 31.6056 109.1 34.9698 107.679 37.8028C106.257 40.5473 104.481 41.9638 102.259 41.9638C101.549 41.7867 100.838 41.6982 100.038 41.6097ZM35.5376 0.885312H0V2.65594L1.86572 2.833C3.28723 3.09859 4.26451 3.62978 4.88642 4.42656C5.50833 5.31187 5.8637 6.72837 5.95255 8.67606C6.6633 18.2374 6.6633 27.1791 5.95255 35.4125C5.77486 37.3602 5.41948 38.7767 4.88642 39.662C4.26451 40.5473 3.28723 41.0785 1.86572 41.2555L0 41.5211V43.2918H22.9218V41.5211L20.523 41.3441C19.1015 41.167 18.1242 40.5473 17.5023 39.7505C16.8804 38.8652 16.525 37.4487 16.4361 35.501C16.1696 31.9598 15.9919 27.8873 15.9919 23.3722L20.7895 23.4608C23.366 23.5493 25.1429 25.497 26.0313 29.3924H27.8082V14.9618H26.0313C25.1429 18.7686 23.4548 20.7163 20.7895 20.8048L15.9919 20.8934C15.9919 12.9256 16.1696 7.25956 16.4361 3.80684H23.4548C28.4301 3.80684 31.8062 6.99396 33.7607 13.3682L35.893 12.7485L35.5376 0.885312ZM31.3619 28.1529C31.3619 32.7565 32.6946 36.5634 35.2711 39.5734C37.8475 42.5835 41.6678 44 46.4654 44C51.263 44 55.1721 42.495 58.0151 39.3964C60.8582 36.3863 62.1908 32.5795 62.1908 27.9759C62.1908 23.3722 60.8581 19.5654 58.2817 16.5553C55.7052 13.5453 51.8849 12.1288 47.0873 12.1288C42.2897 12.1288 38.3806 13.6338 35.5376 16.7324C32.6946 19.7425 31.3619 23.5493 31.3619 28.1529ZM51.1741 18.0604C52.2403 20.6278 52.6845 23.992 52.6845 28.0644C52.6845 37.4487 50.7299 42.0523 46.9096 42.0523C44.9551 42.0523 43.4447 40.7243 42.3786 38.0684C41.3125 35.4125 40.8682 32.0483 40.8682 28.0644C40.8682 18.7686 42.8228 14.165 46.6431 14.165C48.5977 14.0765 50.108 15.4044 51.1741 18.0604ZM126.247 39.5734C129.179 42.495 132.911 44 137.353 44C140.107 44 142.506 43.4688 144.638 42.3179C146.77 41.2555 148.458 39.9276 149.613 38.334L148.725 37.2716C146.77 38.7767 144.549 39.4849 141.973 39.4849C138.419 39.4849 135.665 38.334 133.799 35.9437C131.845 33.5533 130.956 30.5433 131.134 26.6479H150.146C150.146 22.3984 149.08 18.9457 146.859 16.2012C144.638 13.5453 141.529 12.2173 137.531 12.2173C132.555 12.2173 128.735 13.8109 125.981 16.9095C123.227 20.008 121.894 23.8149 121.894 28.33C121.894 32.9336 123.315 36.6519 126.247 39.5734ZM132.822 17.3521C133.799 15.2274 135.043 14.165 136.731 14.165C139.396 14.165 140.729 17.5292 140.729 24.3461L131.311 24.5231C131.4 21.8672 131.845 19.4769 132.822 17.3521ZM174.045 13.8109C171.647 12.7485 168.626 12.1288 164.983 12.1288C161.252 12.1288 158.32 13.1026 156.099 14.9618C153.878 16.8209 152.723 19.1227 152.723 21.8672C152.723 24.2575 153.434 26.1167 154.766 27.4447C156.099 28.7726 158.231 29.9235 160.985 30.8974C163.473 31.7827 165.25 32.668 166.138 33.4648C167.027 34.3501 167.56 35.3239 167.56 36.6519C167.56 37.8913 167.116 39.0423 166.138 39.9276C165.25 40.9014 164.006 41.3441 162.407 41.3441C158.498 41.3441 155.566 38.5111 153.522 32.8451L152.012 33.2877L152.367 42.1408C155.566 43.3803 159.12 44 163.029 44C167.116 44 170.225 43.1147 172.535 41.2555C174.845 39.4849 176 36.9175 176 33.7304C176 31.6056 175.467 29.835 174.312 28.507C173.157 27.1791 171.291 26.0282 168.626 24.9658C165.694 23.9034 163.651 22.9296 162.585 22.0443C161.518 21.159 160.985 20.0966 160.985 18.7686C160.985 17.4406 161.341 16.3783 162.14 15.493C162.94 14.6076 163.917 14.2535 165.161 14.2535C168.715 14.2535 171.291 16.8209 172.89 21.8672L174.401 21.4245L174.045 13.8109ZM88.5775 13.0141C87.3337 12.3944 86.001 12.1288 84.4907 12.1288C82.9803 12.1288 81.47 12.7485 79.7819 13.9879C78.0939 15.2274 76.8501 16.9095 75.8728 19.2113L75.9616 12.1288L62.4573 14.7847V16.0241L63.79 16.1127C65.478 16.2897 66.4553 17.6177 66.633 20.008C67.1661 25.497 67.1661 31.34 66.633 37.5372C66.4553 39.9276 65.478 41.167 63.79 41.4326L62.4573 41.6097V43.2918H81.2923V41.6097L78.8935 41.4326C77.2055 41.2555 76.2282 39.9276 76.0505 37.5372C75.5174 32.4024 75.4286 26.9135 75.8728 21.2475C76.4059 20.3622 77.5608 19.831 79.3377 19.6539C81.1146 19.4769 83.158 20.008 85.2903 21.2475L88.5775 13.0141Z" fill="black"/>
</svg>
