<svg width="176" height="45" viewBox="0 0 176 45" fill="none" xmlns="http://www.w3.org/2000/svg">
<path d="M158.089 0.613281V43.9711H176V36.6295H165.435V25.3819H172.246V18.0403H165.435V7.95488H176V0.613281H158.089Z" fill="black"/>
<path d="M143.553 0.613281V24.2567L136.124 0.613281H128.778V43.9711H136.124V22.7303L142.765 43.9711H150.899V0.613281H143.553Z" fill="black"/>
<path d="M114.482 0.613281V34.3883C114.482 35.9608 113.204 37.2383 111.632 37.2383C110.059 37.2383 108.782 35.9608 108.782 34.3883V0.613281H101.436V34.3883C101.436 40.019 106.001 44.5845 111.632 44.5845C117.263 44.5845 121.828 40.019 121.828 34.3883V0.613281H114.482Z" fill="black"/>
<path d="M95.3808 0.613281H75.03V7.95488H81.5323V43.9711H88.8785V7.95488H95.3808V0.613281Z" fill="black"/>
<path d="M71.6636 43.9711H64.073L58.6452 23.3805C58.6452 23.3805 63.3167 22.5412 63.3167 17.57V10.7956C63.3167 9.22305 62.0439 7.95027 60.476 7.95027H57.6537V43.9711H50.3075V0.613281H60.4714C65.9499 0.613281 70.4047 4.93892 70.6398 10.3529H70.6629V17.4408H70.6398C70.6398 21.7204 69.2379 24.8055 66.6785 26.77L71.6682 43.9711H71.6636Z" fill="black"/>
<path d="M22.6565 10.1961V34.393C22.6565 40.0237 27.2219 44.5891 32.8526 44.5891C38.4833 44.5891 43.0488 40.0237 43.0488 34.393V10.1915C43.0488 4.56083 38.488 0 32.8573 0C27.2265 0 22.6611 4.56544 22.6611 10.1961M30.0073 34.393V10.1961C30.0073 8.62361 31.2847 7.34621 32.8573 7.34621H32.8665C34.4344 7.34621 35.7072 8.619 35.7072 10.1869V34.3884C35.7072 35.9609 34.4298 37.2383 32.8573 37.2383C31.2847 37.2383 30.0073 35.9609 30.0073 34.3884" fill="black"/>
<path d="M0 0.613281V43.9711H7.34621V25.3819H14.1529V18.0403H7.34621V7.95488H17.9067V0.613281H0Z" fill="black"/>
</svg>
