<svg width="176" height="23" viewBox="0 0 176 23" fill="none" xmlns="http://www.w3.org/2000/svg">
<path fill-rule="evenodd" clip-rule="evenodd" d="M157.708 15.8058C157.005 16.3986 155.586 17.657 154.927 18.2938C154.312 17.7447 153.034 16.742 152.244 16.1713V16.0741C152.472 15.997 152.634 15.7857 152.634 15.2691V9.17137C151.998 8.7107 150.802 7.97649 150.122 7.53768L149.585 8.04984V15.5622L150.659 16.367C150.659 16.367 149.171 17.657 148.513 18.2938C147.92 17.7228 147.034 17.057 146.244 16.4639V16.3911C146.472 16.3145 146.634 16.0786 146.634 15.5622V9.17137C145.998 8.7107 144.827 7.97649 144.147 7.53768L143.488 8.09857V15.5622L144.562 16.367C144.562 16.367 143.115 17.5724 142.415 18.2694C141.756 17.6766 141.024 17.1366 140.147 16.4639V16.4154C140.393 16.3147 140.537 16.0095 140.537 15.6591V8.31785L139.659 7.53768L138.976 8.12293L138.707 7.83031C139.366 7.28147 140.544 6.21772 141.488 5.31799L143.488 7.12298V7.63514L146.195 5.31799C147.052 5.93263 149.585 7.53768 149.585 7.53768L152.195 5.31799C153.03 5.97659 154.947 7.16668 156 7.78158V7.87904C155.649 7.97298 155.61 8.41782 155.61 8.65921V15.2691L156.732 16.1228L157.39 15.5376L157.708 15.8058ZM138.878 2.92774C138.176 3.91564 137.605 4.36701 136.464 4.36701C135.695 4.36701 135.151 4.01536 134.537 3.26935L133.903 3.87897L133.635 3.53736L136.391 1.07402C137.159 2.6326 138.083 2.85214 138.83 2.83028L138.878 2.92774ZM139.586 15.8058C138.817 16.4639 137.53 17.5965 136.829 18.2938C136.171 17.701 135.048 16.844 134.171 16.1713V16.0985C134.418 15.9975 134.561 15.693 134.561 15.3421V8.31785L133.683 7.53768L133 8.12293L132.732 7.83031C133.39 7.28147 134.568 6.21772 135.512 5.31799L137.903 7.43997V7.53768C137.617 7.62534 137.513 7.80871 137.513 8.46454V15.2691L138.659 16.0741L139.293 15.5132L139.586 15.8058ZM92.6342 15.8058C91.8658 16.4639 90.5793 17.5965 89.878 18.2938C89.2194 17.701 88.0971 16.844 87.2197 16.1713V16.0985C87.4661 15.9975 87.6098 15.693 87.6098 15.3421V3.95206L86.7319 3.17164L86.0487 3.75689L85.7807 3.46427C86.4393 2.91543 87.4707 1.8763 88.4146 0.976562L90.951 3.09855V3.196C90.666 3.28392 90.561 3.46728 90.561 4.12286V15.2691L91.7071 16.0741L92.3657 15.5132L92.6342 15.8058ZM66.3415 15.8058C65.6392 16.3986 64.2441 17.657 63.5856 18.2938C62.9709 17.7447 61.717 16.742 60.9268 16.1713V16.0741C61.1554 15.997 61.3171 15.7857 61.3171 15.2691V9.17137C60.6804 8.7107 59.5096 7.97649 58.8292 7.53768C58.6903 7.64067 58.3132 7.96971 58.1708 8.09857V15.5622L59.2439 16.367C59.2439 16.367 57.7742 17.5724 57.0732 18.2694C56.4146 17.6766 55.7067 17.1366 54.8294 16.4639V16.4154C55.076 16.3147 55.2194 16.0095 55.2194 15.6591V8.31785L54.3169 7.51306L53.6586 8.09832L53.3657 7.80594C54.0243 7.25711 55.227 6.21797 56.1707 5.31799L58.1708 7.12298V7.63514L60.8781 5.31799C61.712 5.97659 63.6051 7.16668 64.6586 7.78158V7.87904C64.3077 7.97298 64.2685 8.41782 64.2685 8.65921V15.2691L65.4147 16.0985L66.0489 15.5132L66.3415 15.8058ZM172.683 16.489V12.9524C172.266 12.755 171.632 12.4804 171.22 12.2692L167.83 15.7815L167.927 15.8058C168.442 15.5253 168.897 15.1713 169.951 15.1713C171.027 15.1713 172.12 15.9505 172.634 16.5134L172.683 16.489ZM176 15.1226C174.288 15.8691 171.812 17.2175 170.61 18.2938C169.995 17.701 169.19 17.1474 168.122 17.1474C167.121 17.1474 166.658 17.5141 166.658 17.8545C166.658 18.0665 167.073 18.0378 167.073 18.3423C167.073 18.4829 166.968 18.6351 166.781 18.6351C166.546 18.6351 166.244 18.3018 166.244 17.8791C166.244 17.0889 166.652 16.4041 167.903 15.0985L170.098 12.806C169.191 12.3425 167.882 11.7595 167.146 11.4398V11.3423C167.36 11.2815 167.512 11.0585 167.512 10.8053V8.92747C167.512 8.72024 167.409 8.40576 167.146 8.31785V8.22039C168.99 7.56205 171.345 6.23756 172.683 5.29362C172.983 5.62719 173.764 6.34231 174.61 6.34231C175.322 6.34231 175.488 5.98136 175.488 5.73269C175.488 5.59152 175.22 5.51316 175.22 5.29362C175.22 5.10599 175.323 5.02536 175.464 5.02536C175.674 5.02536 175.854 5.23585 175.854 5.63498C175.854 6.82056 174.732 8.3912 172.951 8.3912C171.78 8.3912 171.061 7.79363 170.512 7.02527L170.464 7.04963V10.0008L172.073 10.7812L172.805 10.0251C173.565 10.5064 175.161 11.3491 176 11.708V11.7814C175.836 11.8507 175.61 12.0396 175.61 12.391V14.4643C175.61 14.7614 175.846 14.9596 176 15.0249V15.1226ZM163.61 10.5617C162.995 9.70588 161.9 8.15709 161.22 7.14734L161.146 7.17171V12.1225L163.61 10.5617ZM166.366 9.31781L161.146 12.5618V14.7813C161.805 15.0666 163.273 15.784 163.976 16.2446L165.098 15.0985C165.408 14.7813 165.305 14.2696 165.854 14.2696C166.007 14.2696 166.122 14.362 166.122 14.5371C166.122 14.7245 165.993 14.8132 165.903 14.9036L162.488 18.2938C161.324 17.5468 158.969 16.4597 157.805 15.9761V15.8792C157.993 15.8086 158.22 15.6792 158.22 15.1962V9.02518C158.22 8.5203 158.019 8.35879 157.805 8.31785V8.22039C159.562 7.64971 162.24 6.21797 163.512 5.31799C164.391 6.63518 165.532 8.26435 166.366 9.31781Z" fill="black"/>
<path fill-rule="evenodd" clip-rule="evenodd" d="M130.171 15.8049V4.65842C130.04 4.66796 129.818 4.68278 129.683 4.68278C128.929 4.68278 127.612 4.38764 126.757 4.14626C124.21 4.60717 121.244 6.76307 121.244 10.8043C121.244 14.2706 123.715 16.4881 127.22 16.4881C128.405 16.4881 129.443 16.2379 130.171 15.8049ZM133.22 1.68292C133.22 3.45073 131.92 4.3462 130.537 4.60969V15.6582C132.315 14.671 132.683 13.5854 132.683 13.073C132.683 12.9617 132.464 12.8098 132.464 12.6093C132.464 12.4536 132.643 12.3172 132.781 12.3172C132.981 12.3172 133.073 12.4998 133.073 12.8294C133.073 15.3977 130.614 18.8537 125.391 18.8537C121.471 18.8537 118.146 15.7757 118.146 11.8048C118.146 6.14139 122.903 4.17288 126.196 3.97545C124.989 3.71221 123.045 3.29274 121.439 3.29274C119.574 3.29274 118.049 4.40246 118.049 5.39011C118.049 5.76311 118.342 5.8342 118.342 6.09744C118.342 6.24262 118.273 6.41468 118.073 6.41468C117.766 6.41468 117.659 6.09342 117.659 5.85354C117.659 3.70217 119.051 0.633983 122.293 0.633983C125.58 0.633983 128.075 1.82911 130.634 1.82911C132.327 1.82911 132.846 1.23154 132.781 0.243897L133.049 0.365721C133.115 0.519444 133.22 1.02357 133.22 1.68292ZM107.951 16.4881V12.9514C107.534 12.754 106.9 12.4795 106.488 12.2682L103.098 15.7805L103.195 15.8049C103.711 15.5243 104.166 15.1704 105.22 15.1704C106.295 15.1704 107.388 15.9495 107.903 16.5124L107.951 16.4881ZM111.269 15.1216C109.556 15.8682 107.08 17.2165 105.879 18.2928C105.263 17.7 104.458 17.1464 103.39 17.1464C102.389 17.1464 101.927 17.5131 101.927 17.8535C101.927 18.0655 102.341 18.0369 102.341 18.3413C102.341 18.4819 102.236 18.6342 102.049 18.6342C101.815 18.6342 101.512 18.3008 101.512 17.8781C101.512 17.0879 101.921 16.4032 103.171 15.0975L105.366 12.805C104.459 12.3416 103.151 11.7586 102.415 11.4388V11.3414C102.628 11.2806 102.781 11.0575 102.781 10.8043V8.92649C102.781 8.71927 102.678 8.40479 102.415 8.31688V8.21942C104.259 7.56107 106.612 6.23659 107.951 5.29265C108.252 5.62622 109.033 6.34133 109.878 6.34133C110.591 6.34133 110.756 5.98038 110.756 5.73172C110.756 5.59055 110.488 5.51218 110.488 5.29265C110.488 5.10502 110.591 5.02439 110.732 5.02439C110.942 5.02439 111.122 5.23488 111.122 5.63401C111.122 6.81958 110 8.39022 108.22 8.39022C107.048 8.39022 106.329 7.79266 105.781 7.0243L105.732 7.04866V9.99979L107.341 10.7802L108.073 10.0242C108.833 10.5054 110.429 11.3481 111.269 11.7071V11.7804C111.104 11.8497 110.878 12.0386 110.878 12.39V14.4633C110.878 14.7604 111.115 14.9586 111.269 15.0239V15.1216ZM98.9513 10.5607C98.3369 9.70491 97.2417 8.15612 96.5608 7.14637L96.4879 7.17073V12.1215L98.9513 10.5607ZM101.683 9.31683L96.4879 12.5608V14.7803C97.1465 15.0656 98.6147 15.783 99.3175 16.2437L100.44 15.0975C100.749 14.7803 100.647 14.2686 101.195 14.2686C101.349 14.2686 101.439 14.3611 101.439 14.5361C101.439 14.7235 101.31 14.8122 101.219 14.9026L97.8292 18.2928C96.6663 17.5458 94.3102 16.4587 93.1465 15.9752V15.8782C93.3346 15.8076 93.537 15.6783 93.537 15.1952V9.0242C93.537 8.51933 93.3602 8.35782 93.1465 8.31688V8.21942C94.9025 7.64873 97.5808 6.217 98.8538 5.31701C99.7317 6.63421 100.849 8.26338 101.683 9.31683ZM84.0733 10.5607C83.4589 9.70491 82.3635 8.15612 81.683 7.14637L81.6343 7.17073V12.1215L84.0733 10.5607ZM86.8297 9.31683L81.6343 12.5608V14.7803C82.2929 15.0656 83.7611 15.783 84.4636 16.2437L85.5856 15.0975C85.8961 14.7803 85.7685 14.2686 86.3173 14.2686C86.4711 14.2686 86.5856 14.3611 86.5856 14.5361C86.5856 14.7235 86.4562 14.8122 86.3661 14.9026L82.9759 18.2928C81.8124 17.5458 79.4563 16.4587 78.2928 15.9752V15.8782C78.481 15.8076 78.6832 15.6783 78.6832 15.1952V9.0242C78.6832 8.51933 78.5063 8.35782 78.2928 8.31688V8.21942C80.0488 7.64873 82.7272 6.217 84.0002 5.31701C84.8783 6.63421 85.9956 8.26338 86.8297 9.31683ZM73.3659 16.1703V9.26835C72.5099 8.78533 71.1148 7.812 70.1709 7.00018L70.1219 7.0243V14.7318C70.9784 15.1269 72.3881 15.9558 73.0245 16.4388L73.3662 16.1703H73.3659ZM77.4878 17.3172C77.4175 20.1043 76.0425 22.0244 73.439 22.0244C71.4022 22.0244 69.8993 20.9759 68.0486 20.9759C66.9711 20.9759 66.3778 21.3075 66.0733 21.683L65.9515 21.6102C66.0613 19.5899 67.4903 18.4634 69.3171 18.4634C71.3308 18.4634 72.796 19.7559 74.927 19.7559C76.2879 19.7559 76.9905 19.0416 77.1223 18.3169L77.0977 18.2684C76.8124 18.4435 76.4514 18.6585 75.9026 18.6585C74.8049 18.6585 73.6123 17.9 73.4146 16.5609C72.8907 16.9261 71.7109 17.8407 71.1952 18.2928C69.9089 17.4614 67.8382 16.425 66.8297 15.9752V15.8782C67.0396 15.8091 67.171 15.5486 67.171 15.2924V8.99984C67.171 8.62608 67.0374 8.36385 66.7807 8.31662V8.21942C68.6464 7.53872 71.0465 6.27778 72.3416 5.26803C73.4644 6.15646 75.506 7.40911 76.7074 8.0976V8.21942C76.4439 8.32918 76.3173 8.50501 76.3173 9.09755V15.8782C76.3173 16.7483 76.3952 17.3413 77.0246 17.3413C77.1246 17.3413 77.2537 17.2559 77.3416 17.1464L77.4881 17.3172H77.4878ZM47.9513 11.0728L45.6832 4.14626L43.2196 11.0731L47.9513 11.0728ZM54.5368 15.6343L51.6588 18.2931C50.8249 17.7003 50.103 17.2198 49.049 16.5612V16.4391C49.2881 16.3522 49.4122 16.1126 49.415 15.8297C49.4162 15.7051 49.4077 15.5703 49.366 15.4391L48.5125 12.7563H42.5856L41.8049 15.0001C43.0247 15.0001 43.7471 15.1892 44.3419 15.4391L44.8538 14.4879L45.2197 14.6831L43.2686 18.3172C42.4698 17.8625 41.5821 17.5124 40.5611 17.5124C39.3569 17.5124 38.4449 17.8256 38 18.2443C37.9111 18.3282 37.777 18.3059 37.8292 18.1223C38.312 16.4321 39.5259 15.143 41.3905 15.0242L45.5124 3.60998C45.0512 2.27068 44.5438 2.00016 43.5125 2.00016C42.5459 2.00016 41.6098 2.44877 41.6098 3.63435C41.6098 4.18318 42.1465 4.13646 42.1465 4.53684C42.1465 4.677 42.0164 4.82947 41.8293 4.82947C41.4781 4.82947 41.244 4.36102 41.244 3.43918C41.244 1.35387 42.827 0.122074 44.5611 0.122074C46.1413 0.122074 46.7612 0.731944 47.244 1.39054C47.3975 0.7759 48.0194 0.490307 48.4879 0.414701L48.5366 0.488046C48.244 0.851004 48.0732 1.17327 48.0732 1.63444C48.0732 1.87382 48.2505 2.41687 48.3168 2.61003L52.7562 15.4391L53.561 15.9515L54.2439 15.3173L54.5366 15.6343H54.5368ZM29.6829 16.4881V12.9514C29.2659 12.754 28.6563 12.4795 28.2441 12.2682L24.8293 15.7805L24.9514 15.8049C25.4663 15.5243 25.922 15.1704 26.9759 15.1704C28.0512 15.1704 29.1195 15.9495 29.6342 16.5124L29.6829 16.4881ZM33 15.1216C31.2877 15.8682 28.8367 17.2165 27.6343 18.2928C27.0194 17.7 26.19 17.1464 25.1222 17.1464C24.1207 17.1464 23.6829 17.5131 23.6829 17.8535C23.6829 18.0655 24.0976 18.0369 24.0976 18.3413C24.0976 18.4819 23.9675 18.6342 23.7806 18.6342C23.5463 18.6342 23.2441 18.3008 23.2441 17.8781C23.2441 17.0879 23.6766 16.4032 24.927 15.0975L27.1221 12.805C26.2156 12.3416 24.8816 11.7586 24.1463 11.4388V11.3414C24.3599 11.2806 24.5367 11.0575 24.5367 10.8043V8.92649C24.5367 8.71927 24.4096 8.40479 24.1463 8.31688V8.21942C25.99 7.56107 28.3438 6.23659 29.6829 5.29265C29.9831 5.62622 30.7642 6.34133 31.6097 6.34133C32.3221 6.34133 32.4878 5.98038 32.4878 5.73172C32.4878 5.59055 32.2439 5.51218 32.2439 5.29265C32.2439 5.10502 32.3226 5.02439 32.4635 5.02439C32.6735 5.02439 32.8779 5.23488 32.8779 5.63401C32.8779 6.81958 31.7315 8.39022 29.9512 8.39022C28.7796 8.39022 28.0613 7.79266 27.5122 7.0243L27.4635 7.04866V9.99979L29.0974 10.7802L29.8293 10.0242C30.5892 10.5054 32.1608 11.3481 33 11.7071V11.7804C32.8357 11.8497 32.634 12.0386 32.634 12.39V14.4633C32.634 14.7604 32.8463 14.9586 33 15.0239V15.1216ZM19.5854 16.5124V9.26835C18.5756 8.71927 17.0927 7.61457 16.3904 7.00018L16.3414 7.0243V14.4141C17.3072 14.9415 18.7464 15.8563 19.5364 16.5365L19.5854 16.5124ZM22.9269 15.1219C21.4587 15.7217 18.6193 17.2167 17.3903 18.2928C16.095 17.3489 14.2021 16.1038 12.9999 15.4145V15.3412C13.3074 15.2317 13.3902 15.0071 13.3902 14.6341V9.09755C13.3902 8.5884 13.2634 8.40479 12.9999 8.31688V8.21942C15.0194 7.47316 16.9367 6.41217 18.5611 5.29265C19.6803 6.12657 21.632 7.35359 22.9269 8.12196V8.21942C22.6928 8.31361 22.5368 8.55349 22.5368 8.92649V14.4143C22.5368 14.8099 22.6852 14.9586 22.9269 15.0239V15.1219ZM7.58518 14.3658V4.09753C6.14491 3.94004 5.41045 2.88708 4.92693 2.3169L3.53664 3.43893C3.54417 5.00103 4.00158 6.36444 4.53634 7.6098C5.02564 8.74816 5.56116 10.2223 5.56116 11.2436C5.56116 12.9256 4.63179 13.9878 2.41461 16.0731L2.48795 16.146C3.8049 15.1588 5.81561 14.396 7.58518 14.3658ZM12.8537 14.5361L10.7805 18.3657C9.65266 17.5795 7.85294 17.0972 6.31697 17.0972C3.28772 17.0972 1.19738 17.637 0.122074 18.3169L0 18.1707C0.960519 17.33 2.56105 15.9787 2.56105 12.9022C2.56105 11.6061 2.03683 10.1372 1.65855 9.17039C1.22074 8.05188 0.878131 7.46437 0.878131 5.90252C0.878131 3.18348 2.3375 1.64775 4.6343 0.487795L4.82922 0.707328C4.03699 1.36643 3.65369 2.21517 3.53664 3.07321L7.21972 0C8.15939 1.32021 9.03752 1.82911 10.195 1.82911C11.1452 1.82911 11.4147 1.40737 11.4147 1.07305C11.4147 0.831914 11.0977 0.797502 11.0977 0.560889C11.0977 0.336583 11.2595 0.268262 11.3901 0.268262C11.6815 0.268262 11.8292 0.644281 11.8292 0.92686C11.8292 2.77832 10.2804 4.14626 8.63412 4.14626C8.34878 4.14626 8.13276 4.17816 7.95141 4.14626V14.3658C9.37812 14.3658 10.8513 14.7928 11.9269 15.3412L12.4877 14.3658L12.8537 14.5361Z" fill="black"/>
<path fill-rule="evenodd" clip-rule="evenodd" d="M129.22 5.63418C129.22 5.78765 129.038 5.90269 128.927 5.90269C128.738 5.90269 128.576 5.53672 128.049 5.53672C127.274 5.53672 126.634 6.20009 126.634 6.97599C126.634 9.01735 128.634 9.84273 128.634 12.1709C128.634 14.1231 126.73 15.2552 124.757 15.5124L124.39 15.2441C125.472 15.1032 125.976 14.73 125.976 13.4143C125.976 11.6367 124.146 10.1896 124.146 8.09777C124.146 6.40531 125.73 5.09766 127.902 5.09766C128.325 5.09766 128.746 5.22701 128.975 5.34155C129.108 5.40711 129.22 5.50231 129.22 5.63418Z" fill="black"/>
</svg>
