<svg width="176" height="25" viewBox="0 0 176 25" fill="none" xmlns="http://www.w3.org/2000/svg">
<path fill-rule="evenodd" clip-rule="evenodd" d="M6.42459 23.3793C6.396 23.788 6.38232 24.1992 6.38232 24.6154H0C0 24.1868 0.0111905 23.762 0.0323281 23.3396C0.696298 10.3381 11.4491 0 24.6154 0C37.8724 0 48.6812 10.4785 49.2096 23.6054C49.2233 23.9408 49.2308 24.2762 49.2308 24.6154H42.8497C42.8497 24.2377 42.8373 23.8626 42.8136 23.4899C42.2317 13.958 34.2902 6.38149 24.6154 6.38149C14.9766 6.38149 7.06121 13.8996 6.42459 23.3793ZM14.6546 23.4539C14.6097 23.8394 14.5873 24.2272 14.5874 24.6154H8.20513C8.20513 24.2514 8.21756 23.8911 8.24119 23.5346C8.79822 14.9754 15.9154 8.20513 24.6154 8.20513C33.3291 8.20513 40.4562 14.9953 40.9933 23.5719C41.0145 23.9172 41.0244 24.2651 41.0244 24.6154H34.6446C34.6446 24.2489 34.6247 23.8887 34.5849 23.5309C34.044 18.5097 29.7792 14.5866 24.6154 14.5866C19.4789 14.5866 15.2315 18.4699 14.6546 23.4539ZM24.6154 16.4103C25.6935 16.4104 26.761 16.6228 27.7569 17.0353C28.7528 17.4478 29.6576 18.0523 30.4196 18.8143C31.1815 19.5763 31.7858 20.4808 32.1977 21.4762C32.6097 22.4715 32.8213 23.5383 32.8205 24.6154H16.4103C16.4096 23.5383 16.6213 22.4717 17.0334 21.4764C17.4454 20.4811 18.0496 19.5766 18.8116 18.8147C19.5735 18.0527 20.4783 17.4482 21.4741 17.0356C22.4699 16.6231 23.5373 16.4106 24.6154 16.4103Z" fill="#FF503C"/>
<path fill-rule="evenodd" clip-rule="evenodd" d="M68.6335 24.1637V5.72101H76.87V0.451669H54.1538V5.72101H62.2775V24.1637H68.6335ZM102.916 12.3077C102.916 19.6095 97.4999 24.6154 90.6173 24.6154C83.7348 24.6154 78.319 19.6095 78.319 12.3077C78.319 5.00588 83.7348 0 90.6173 0C97.4999 0 102.916 5.00588 102.916 12.3077ZM96.3343 12.3077C96.3343 8.2804 94.1153 5.64572 90.6176 5.64572C87.1199 5.64572 84.9009 8.2804 84.9009 12.3077C84.9009 16.3349 87.1199 18.9697 90.6176 18.9697C94.1153 18.9697 96.3343 16.3349 96.3343 12.3077ZM112.752 19.1202H115.272C119.409 19.1202 121.854 16.636 121.854 12.2701C121.854 7.97929 119.409 5.49517 115.272 5.49517H112.752V19.1202ZM106.358 24.1637V0.451669H115.723C123.584 0.451669 128.435 4.89298 128.435 12.3077C128.435 19.7225 123.584 24.1637 115.723 24.1637H106.358ZM138.384 0.451669H145.529L154.97 24.1637H148.162L146.395 19.5719H137.143L135.375 24.1637H128.944L138.384 0.451669ZM141.694 7.7911L138.985 14.7918H144.551L141.844 7.7911H141.694ZM164.04 8.99552L169.118 0.451669H176L166.899 15.1682V24.1637H160.693V15.1682L151.591 0.451669H158.699L164.04 8.99552Z" fill="black"/>
</svg>
