<svg width="176" height="63" viewBox="0 0 176 63" fill="none" xmlns="http://www.w3.org/2000/svg">
<g clip-path="url(#clip0_9525_1539)">
<path d="M31.5897 63C49.0363 63 63.1795 48.897 63.1795 31.5C63.1795 14.103 49.0363 0 31.5897 0C14.1432 0 0 14.103 0 31.5C0 48.897 14.1432 63 31.5897 63Z" fill="#009BFF"/>
<path d="M81.2308 24.1886C81.7213 24.2185 82.2126 24.1437 82.6717 23.9691C83.1309 23.7945 83.5474 23.5241 83.8934 23.1761C84.5459 22.3474 84.853 21.2998 84.7508 20.2511V7.71862H90.4595V20.2511C90.5304 21.4329 90.3477 22.6162 89.9236 23.722C89.4994 24.8277 88.8437 25.8306 88 26.6636C86.1133 28.2458 83.6922 29.0505 81.2308 28.9136C78.7691 29.0528 76.3472 28.2478 74.4616 26.6636C73.5894 25.8446 72.9043 24.848 72.4527 23.7416C72.001 22.6351 71.7935 21.4447 71.8441 20.2511V7.71862H77.5529V20.2511C77.4854 21.297 77.8248 22.3285 78.5005 23.1311C78.8491 23.4975 79.2747 23.7823 79.7468 23.9651C80.2188 24.148 80.7256 24.2243 81.2308 24.1886ZM101.854 28.9361C100.205 28.935 98.5694 28.6377 97.0257 28.0586C95.5162 27.5089 94.1345 26.6592 92.9641 25.5611L95.717 22.0961C96.5266 22.8287 97.4582 23.415 98.4698 23.8286C99.5452 24.2594 100.696 24.4735 101.854 24.4586C102.528 24.4952 103.199 24.3474 103.795 24.0311C104.017 23.9007 104.2 23.7125 104.323 23.4866C104.446 23.2607 104.505 23.0056 104.494 22.7486C104.491 22.4723 104.411 22.2023 104.264 21.9682C104.116 21.7341 103.907 21.5448 103.66 21.4211C102.737 20.9047 101.751 20.5113 100.726 20.2511L99.44 19.9136C97.832 19.5672 96.3496 18.7892 95.1529 17.6636C94.6628 17.1527 94.2806 16.5489 94.0287 15.888C93.7767 15.2272 93.6603 14.5226 93.6862 13.8161C93.6959 12.6077 94.0736 11.4307 94.7693 10.4411C95.5062 9.44056 96.5056 8.66202 97.6575 8.19112C99.0066 7.62698 100.459 7.35105 101.922 7.38113C103.469 7.3843 105 7.68214 106.435 8.25863C107.845 8.80377 109.151 9.5878 110.293 10.5761L107.45 14.1536C106.663 13.4922 105.791 12.9397 104.855 12.5111C103.936 12.0583 102.925 11.8198 101.9 11.8136C101.242 11.7715 100.586 11.9117 100.004 12.2186C99.7723 12.3399 99.5807 12.5256 99.4526 12.7532C99.3244 12.9808 99.2652 13.2406 99.2821 13.5011C99.2898 13.7515 99.3573 13.9964 99.4789 14.2155C99.6006 14.4347 99.7729 14.6217 99.9816 14.7611C100.725 15.2395 101.551 15.5752 102.418 15.7511L103.975 16.1786C105.771 16.5475 107.424 17.422 108.736 18.6986C109.654 19.7168 110.154 21.0423 110.135 22.4111C110.158 23.6454 109.795 24.8561 109.097 25.8761C108.354 26.88 107.347 27.6588 106.187 28.1261C104.815 28.6938 103.339 28.9697 101.854 28.9361ZM127.397 28.5311L126.066 24.7511H118.258L116.95 28.6436H111.309L118.958 7.83113H125.592L133.128 28.5311H127.397ZM119.59 20.4311H124.531L122.185 13.1411L119.59 20.4311ZM78.0493 55.1936V38.9711H71.8441V34.4711H89.8954V38.9711H83.758V55.1936H78.0493ZM101.9 55.5986C99.9532 55.6363 98.0312 55.163 96.3262 54.2261C94.7309 53.3193 93.4129 51.9972 92.5129 50.4011C91.5487 48.7007 91.0579 46.7742 91.0913 44.8211C91.0688 43.3455 91.3292 41.8793 91.8585 40.5011C92.3681 39.2192 93.1361 38.0552 94.1149 37.0811C95.0969 36.1114 96.2629 35.3465 97.5446 34.8311C100.328 33.774 103.404 33.774 106.187 34.8311C107.468 35.347 108.634 36.1118 109.616 37.0811C110.596 38.0548 111.364 39.2189 111.873 40.5011C112.465 41.8668 112.787 43.3337 112.821 44.8211C112.861 46.7722 112.378 48.6985 111.422 50.4011C110.506 51.9948 109.172 53.3094 107.563 54.2036C105.834 55.1638 103.878 55.6454 101.9 55.5986ZM101.9 50.8961C102.83 50.9164 103.744 50.6492 104.517 50.1311C105.287 49.591 105.896 48.8521 106.277 47.9936C106.729 46.998 106.953 45.914 106.931 44.8211C106.949 43.7286 106.726 42.6455 106.277 41.6486C105.908 40.752 105.299 39.9736 104.517 39.3986C103.736 38.8867 102.823 38.6138 101.888 38.6138C100.954 38.6138 100.04 38.8867 99.2595 39.3986C98.4772 39.9736 97.8683 40.752 97.4995 41.6486C97.0506 42.6455 96.8272 43.7286 96.8452 44.8211C96.8235 45.914 97.0471 46.998 97.4995 47.9936C97.8809 48.8521 98.4893 49.591 99.2595 50.1311C100.041 50.6458 100.964 50.9053 101.9 50.8736V50.8961ZM116.002 55.1936V34.3811H124.238C126.15 34.3413 128.04 34.7988 129.721 35.7086C131.275 36.5689 132.562 37.8374 133.444 39.3761C134.329 41.0392 134.792 42.8933 134.792 44.7761C134.792 46.6589 134.329 48.513 133.444 50.1761C132.562 51.7149 131.275 52.9833 129.721 53.8436C128.04 54.7535 126.15 55.211 124.238 55.1711L116.002 55.1936ZM121.621 50.6936H124.238C124.915 50.7201 125.588 50.5872 126.203 50.3057C126.819 50.0243 127.359 49.6022 127.781 49.0736C128.691 47.8382 129.153 46.3305 129.089 44.7986C129.153 43.2668 128.691 41.7591 127.781 40.5236C127.359 39.9951 126.819 39.573 126.203 39.2915C125.588 39.0101 124.915 38.8772 124.238 38.9036H121.621V50.6936ZM151.631 55.1936L150.322 51.3011H142.492L141.184 55.1936H135.543L143.192 34.3811H149.826L157.475 55.1936H151.631ZM143.936 47.0936H148.923L146.464 39.8036L143.936 47.0936ZM168.486 47.7011V55.1936H162.687V47.7011L155.286 34.3811H161.74L165.598 42.7511L169.434 34.4936H175.887L168.486 47.7011Z" fill="#404040"/>
</g>
<defs>
<clipPath id="clip0_9525_1539">
<rect width="176" height="63" fill="white"/>
</clipPath>
</defs>
</svg>
